<svg width="49" height="61" viewBox="0 0 49 61" fill="none" xmlns="http://www.w3.org/2000/svg">
<path d="M11.8718 19.568C12.4238 19.568 12.9605 19.522 13.4818 19.43C14.0032 19.338 14.4708 19.1847 14.8848 18.97C15.3142 18.7553 15.6745 18.4793 15.9658 18.142C16.2725 17.8047 16.4718 17.3907 16.5638 16.9H18.7028V33H15.8278V21.638H11.8718V19.568ZM23.7551 16.578H27.1821L30.9081 22.374L34.7951 16.578H38.0151L32.5871 24.49L38.4061 33H34.9101L30.8161 26.721L26.6531 33H23.3641L29.1831 24.49L23.7551 16.578Z" fill="#1D1D21"/>
<path d="M3 12.7778C3 9.35522 3 7.64396 3.66608 6.33673C4.25195 5.18683 5.18683 4.25195 6.33673 3.66608C7.64396 3 9.35522 3 12.7778 3H36C39.4225 3 41.1339 3 42.4411 3.66608C43.5909 4.25195 44.5259 5.18683 45.1117 6.33673C45.7778 7.64396 45.7778 9.35522 45.7778 12.7778V58L24.3889 42.7222L3 58V12.7778Z" stroke="#1D1D21" stroke-width="5" stroke-linejoin="round"/>
</svg>
