<svg width="66" height="70" viewBox="0 0 66 70" fill="none" xmlns="http://www.w3.org/2000/svg">
<path d="M63.4364 4.42773H35.9139C34.9271 4.42773 34.127 5.22788 34.127 6.21468V18.5403L37.3499 13.7627C37.4573 13.6035 37.5751 13.4536 37.7009 13.3121V8.00163H61.6494V41.5645H37.7009V30.1183C37.4009 30.4316 37.0572 30.713 36.6717 30.9524L35.776 31.5084L34.4781 33.4326C34.3705 33.5919 34.2527 33.7419 34.127 33.8835V43.3514C34.127 44.3382 34.9271 45.1384 35.9139 45.1384H63.4364C64.4232 45.1384 65.2233 44.3382 65.2233 43.3514V6.21468C65.2233 5.22765 64.4232 4.42773 63.4364 4.42773Z" fill="black"/>
<path d="M13.88 14.721C16.2323 14.721 18.2363 13.2295 18.998 11.1406H8.76172C9.52359 13.2295 11.5274 14.721 13.88 14.721Z" fill="black"/>
<path d="M42.109 14.8387C41.2849 14.1124 40.036 14.2941 39.4406 15.1758C38.0924 17.1744 34.9518 21.8296 33.5659 23.8842C33.2031 23.9303 32.8441 24.0507 32.5131 24.2562L27.1909 27.5606C27.1822 25.8274 27.1753 24.455 27.1663 22.6474C27.1491 19.2029 24.3165 16.3841 20.8719 16.3841H20.4794C19.8759 17.6608 16.1955 25.4451 15.6333 26.6345V19.3345L16.6955 17.4446C16.9621 16.9701 16.6192 16.3841 16.0751 16.3841H11.695C11.1543 16.3841 10.8109 16.9636 11.0708 17.4379L12.0594 19.2425V26.6345C8.76637 19.6684 10.5847 23.3634 7.28537 16.3841H6.81178C3.3997 16.3841 0.610049 19.2351 0.593039 22.647L0.496126 41.9529C0.488964 43.4042 1.65952 44.5866 3.11075 44.594C3.11523 44.594 3.11948 44.594 3.12418 44.594C4.56936 44.594 5.7444 43.4261 5.75178 41.9793L5.8487 22.6734C5.85026 22.3679 6.11392 22.1253 6.42547 22.1573C6.69607 22.1852 6.89146 22.4332 6.89146 22.7052L6.8928 66.8483C6.8928 68.6404 8.38767 70.0833 10.1986 69.998C11.8946 69.9181 13.1995 68.457 13.1995 66.7592V42.3618C13.1995 42.0301 13.4204 41.7244 13.7452 41.6575C14.1794 41.568 14.561 41.897 14.561 42.3153V66.7592C14.561 68.457 15.8658 69.9181 17.5619 69.998C19.3728 70.0833 20.8679 68.6404 20.8679 66.8483C20.8046 24.5747 20.8102 30.1027 20.8106 22.7078C20.8106 22.4209 21.0165 22.1586 21.3021 22.1291C21.6307 22.095 21.9086 22.3511 21.9104 22.6732C21.9196 24.4984 21.948 30.1674 21.9583 32.225C21.9621 32.9651 22.2473 33.6881 22.7905 34.1908C23.6826 35.0166 24.9821 35.1182 25.9727 34.503L29.6052 32.2476C29.6943 32.342 29.7939 32.4289 29.9061 32.5045C30.7243 33.0564 31.8349 32.8405 32.3868 32.0224L34.1304 29.438L35.2855 28.7209C36.245 28.1253 36.6841 27.0123 36.4724 25.9666C38.8715 22.4102 39.9782 20.7698 42.3677 17.2275C42.8753 16.475 42.79 15.439 42.109 14.8387Z" fill="black"/>
<path d="M8.43344 8.7228H19.1717C20.1585 8.7228 20.9587 7.92265 20.9587 6.93585C20.9587 6.31341 20.6399 5.76596 20.1574 5.4459C20.037 4.45149 19.6867 3.52824 19.1601 2.73123C18.2359 1.3326 16.7715 0.323639 15.0638 0V3.05039C15.0638 3.74691 14.4991 4.31182 13.8023 4.31182C13.1058 4.31182 12.5409 3.74713 12.5409 3.05039V0.0308867C10.8997 0.38474 9.49567 1.3749 8.59951 2.73123C8.0901 3.50228 7.74542 4.39128 7.61449 5.34877C7.03995 5.64599 6.64648 6.24448 6.64648 6.93585C6.64648 7.92265 7.4464 8.7228 8.43344 8.7228Z" fill="black"/>
<path d="M45.5034 20.32C45.9834 20.32 46.45 20.28 46.9034 20.2C47.3567 20.12 47.7634 19.9867 48.1234 19.8C48.4967 19.6133 48.81 19.3733 49.0634 19.08C49.33 18.7867 49.5034 18.4267 49.5834 18H51.4434V32H48.9434V22.12H45.5034V20.32Z" fill="#1D1D21"/>
</svg>
