<?xml version="1.0" encoding="UTF-8"?>
<svg id="Layer_1" data-name="Layer 1" xmlns="http://www.w3.org/2000/svg" viewBox="0 0 402.85 308.71">
  <defs>
    <style>
      .cls-1 {
        fill: #fefefe;
        fill-rule: evenodd;
        stroke-width: 0px;
      }
    </style>
  </defs>
  <path class="cls-1" d="M393.48,92.29h-74.53c-9.73,0-17.92,4.97-19.29,15.36-1.74,13.15,12.61,26.72,20.23,36.75l21.45,28.21c12.26,16.12,21.75,36.99,21.75,57.43,0,50.26-41.73,78.67-89.1,78.67h-124.54c-37.06,0-67.46-13.72-95.75-36.91-22.5-18.44-38.43-40.45-50.62-66.79-10.41-22.47,7.74-21.02,21.83-21.02h36.43s52.83-11.26,95.23-23.68c35.13-10.29,59.34-4.55,71.7-2.09,22.63,4.5,3.24-27.73-.18-39.8-3.29-11.59-6.57-27.52-6.49-42.24.21-39.9,26.1-76.18,68.79-76.18,38.59,0,55.65,28.49,63.43,51.67l43.23,21.85c10.21,5.16,5.63,18.76-3.56,18.76h0ZM89.65,235.8c-3.41-3.47-3.36-9.04.1-12.46s9.04-3.36,12.46.1c.66.67,1.34,1.34,2.04,2.03,19.36,18.68,43.91,27.74,67.59,28.22,23.47.47,46.01-7.46,61.65-22.8.45-.44.91-.91,1.38-1.39,3.37-3.51,8.95-3.61,12.46-.24,3.51,3.37,3.61,8.95.24,12.46-.55.57-1.13,1.15-1.73,1.74-19.08,18.71-46.26,28.4-74.34,27.83-27.88-.56-56.73-11.2-79.45-33.12-.79-.76-1.58-1.55-2.39-2.37h0ZM301.32,36.6c5.76,0,10.43,4.67,10.43,10.43s-4.67,10.43-10.43,10.43-10.43-4.67-10.43-10.43,4.67-10.43,10.43-10.43Z"/>
</svg>