<svg width="31" height="36" viewBox="0 0 31 36" fill="none" xmlns="http://www.w3.org/2000/svg">
<path d="M15.5 16.8286C14.1714 16.8286 13.2857 17.7143 13.2857 19.0429C13.2857 19.9286 13.95 20.5929 14.6143 20.8143L13.95 23.9143H16.8286L16.1643 20.8143C17.05 20.5929 17.4929 19.9286 17.4929 19.0429C17.7143 17.7143 16.8286 16.8286 15.5 16.8286ZM15.7214 7.30714C14.1714 7.30714 12.6214 8.41429 12.6214 9.96428V13.2857H18.6V9.96428C18.3786 8.41429 17.2714 7.30714 15.7214 7.30714ZM15.5 0L0 6.64286V13.2857C0.221429 23.0286 6.42143 31.6643 15.5 35.2071C24.5786 31.6643 30.7786 23.0286 31 13.2857V6.64286L15.5 0ZM24.3571 24.3571C24.3571 25.6857 23.4714 26.5714 22.1429 26.5714H8.85714C7.52857 26.5714 6.64286 25.6857 6.64286 24.3571V15.5C6.64286 14.1714 7.52857 13.2857 8.85714 13.2857H9.52143V9.96428C9.74286 6.86429 12.4 4.42857 15.5 4.42857C18.6 4.42857 21.2571 6.86429 21.4786 9.96428V13.2857H22.1429C23.4714 13.2857 24.3571 14.1714 24.3571 15.5V24.3571Z" fill="black"/>
</svg>
