<svg width="46" height="50" viewBox="0 0 46 50" fill="none" xmlns="http://www.w3.org/2000/svg">
<path d="M28.5715 43.4524C28.5715 44.1095 28.0382 44.6429 27.3809 44.6429H17.8571C17.2 44.6429 16.6667 44.1095 16.6667 43.4524C16.6667 42.7952 17.2 42.2618 17.8571 42.2618H27.3809C28.0382 42.2619 28.5715 42.7953 28.5715 43.4524ZM27.3809 45.2381H17.8571C17.0738 45.2381 16.4673 45.9947 16.728 46.8167C16.8852 47.3125 17.3869 47.619 17.9072 47.619H17.9251C18.6126 47.619 19.2412 48.0077 19.5488 48.6226L19.5614 48.6477C19.9763 49.4762 20.8233 50 21.7501 50H23.4882C24.415 50 25.262 49.4762 25.6763 48.6477L25.6888 48.6226C25.9966 48.0078 26.6251 47.619 27.3126 47.619H27.3304C27.8507 47.619 28.3525 47.3125 28.5096 46.8167C28.7708 45.9947 28.1643 45.2381 27.3809 45.2381ZM22.6191 7.14286C23.2763 7.14286 23.8096 6.60951 23.8096 5.95238V1.19048C23.8096 0.533351 23.2763 0 22.6191 0C21.9619 0 21.4286 0.533351 21.4286 1.19048V5.95238C21.4286 6.60951 21.9619 7.14286 22.6191 7.14286ZM9.9923 11.6756C10.2244 11.9083 10.5292 12.0244 10.8339 12.0244C11.1387 12.0244 11.4435 11.9083 11.6756 11.6756C12.1405 11.2107 12.1405 10.4571 11.6756 9.9923L8.30838 6.625C7.8441 6.1601 7.08928 6.1601 6.62509 6.625C6.16019 7.0899 6.16019 7.8434 6.62509 8.3083L9.9923 11.6756ZM7.14286 22.619C7.14286 21.9619 6.60951 21.4286 5.95238 21.4286H1.19048C0.533351 21.4286 0 21.9619 0 22.619C0 23.2762 0.533351 23.8095 1.19048 23.8095H5.95238C6.60959 23.8095 7.14286 23.2762 7.14286 22.619ZM9.9923 33.5625L6.62509 36.9298C6.16019 37.3947 6.16019 38.1483 6.62509 38.6131C6.85723 38.8458 7.16194 38.9618 7.46674 38.9618C7.77145 38.9618 8.07624 38.8458 8.30838 38.6131L11.6756 35.2458C12.1405 34.7809 12.1405 34.0274 11.6756 33.5625C11.2113 33.0976 10.4566 33.0976 9.9923 33.5625ZM35.2459 33.5625C34.781 33.0976 34.0274 33.0976 33.5626 33.5625C33.0978 34.0274 33.0977 34.781 33.5626 35.2458L36.9299 38.6131C37.1625 38.8458 37.4668 38.9618 37.7715 38.9618C38.0762 38.9618 38.3804 38.8458 38.6132 38.6131C39.0781 38.1482 39.0781 37.3946 38.6132 36.9298L35.2459 33.5625ZM44.0476 21.4286H39.2857C38.6286 21.4286 38.0952 21.9619 38.0952 22.619C38.0952 23.2762 38.6286 23.8095 39.2857 23.8095H44.0476C44.7047 23.8095 45.2381 23.2762 45.2381 22.619C45.2381 21.9619 44.7047 21.4286 44.0476 21.4286ZM34.4041 12.0244C34.7089 12.0244 35.013 11.9083 35.2458 11.6756L38.6131 8.3083C39.078 7.8434 39.078 7.0899 38.6131 6.625C38.1482 6.1601 37.3946 6.1601 36.9298 6.625L33.5625 9.9923C33.0976 10.4572 33.0976 11.2107 33.5625 11.6756C33.7947 11.9083 34.0994 12.0244 34.4041 12.0244ZM28.5715 40.4762C28.5715 41.1333 28.0382 41.6667 27.3809 41.6667H17.8571C17.2 41.6667 16.6667 41.1333 16.6667 40.4762C16.6667 39.8423 17.1637 39.3286 17.7887 39.2928C17.0476 32.594 10.119 31.1018 10.119 23.2143C10.119 16.3107 15.7155 10.7143 22.619 10.7143C29.5226 10.7143 35.119 16.3107 35.119 23.2143C35.119 31.1017 28.1905 32.594 27.4494 39.2929C28.0744 39.3286 28.5715 39.8423 28.5715 40.4762ZM19.8756 14.0536C19.6905 13.597 19.1709 13.3774 18.7125 13.5613C15.6703 14.794 13.3638 17.4291 12.5429 20.61C12.4196 21.088 12.7072 21.5743 13.1846 21.6976C13.259 21.7172 13.334 21.7261 13.4078 21.7261C13.8054 21.7261 14.168 21.4589 14.2721 21.0565C14.9519 18.4208 16.8627 16.2374 19.3829 15.2166C19.8399 15.0316 20.0601 14.5113 19.8756 14.0536Z" fill="white"/>
</svg>
