<svg width="47" height="46" viewBox="0 0 47 46" fill="none" xmlns="http://www.w3.org/2000/svg">
<path d="M9.66667 11.8889H11.8889M9.66667 18.5556H11.8889M20.7778 18.5556H23M20.7778 25.2222H23M9.66667 25.2222H11.8889M20.7778 11.8889H23M11.8889 43V36.3333C11.8889 33.8787 13.8787 31.8889 16.3333 31.8889C18.788 31.8889 20.7778 33.8787 20.7778 36.3333V43H11.8889ZM11.8889 43H3V6.55556C3 5.311 3 4.68871 3.2422 4.21336C3.45527 3.79522 3.79522 3.45527 4.21336 3.2422C4.68871 3 5.311 3 6.55556 3H26.1111C27.3558 3 27.978 3 28.4533 3.2422C28.8716 3.45527 29.2113 3.79522 29.4244 4.21336C29.6667 4.68871 29.6667 5.311 29.6667 6.55556V16.3333M40.1111 26.3333C40.1111 28.1742 38.6187 29.6667 36.7778 29.6667C34.9369 29.6667 33.4444 28.1742 33.4444 26.3333C33.4444 24.4924 34.9369 23 36.7778 23C38.6187 23 40.1111 24.4924 40.1111 26.3333ZM44.1111 43V41.8889C44.1111 38.8207 41.6238 36.3333 38.5556 36.3333H35.2222C32.154 36.3333 29.6667 38.8207 29.6667 41.8889V43H44.1111Z" stroke="#1D1D21" stroke-width="5" stroke-linecap="round" stroke-linejoin="round"/>
</svg>
