<?xml version="1.0" encoding="UTF-8"?>
<svg id="Layer_1" data-name="Layer 1" xmlns="http://www.w3.org/2000/svg" viewBox="0 0 40 30.65">
  <defs>
    <style>
      .cls-1 {
        fill: #fefefe;
        fill-rule: evenodd;
        stroke-width: 0px;
      }
    </style>
  </defs>
  <path class="cls-1" d="M39.07,9.16h-7.4c-.97,0-1.78.49-1.92,1.53-.17,1.31,1.25,2.65,2.01,3.65l2.13,2.8c1.22,1.6,2.16,3.67,2.16,5.7,0,4.99-4.14,7.81-8.85,7.81h-12.37c-3.68,0-6.7-1.36-9.51-3.66-2.23-1.83-3.82-4.02-5.03-6.63-1.03-2.23.77-2.09,2.17-2.09h3.62s5.25-1.12,9.46-2.35c3.49-1.02,5.89-.45,7.12-.21,2.25.45.32-2.75-.02-3.95-.33-1.15-.65-2.73-.64-4.19.02-3.96,2.59-7.56,6.83-7.56,3.83,0,5.53,2.83,6.3,5.13l4.29,2.17c1.01.51.56,1.86-.35,1.86h0ZM8.9,23.41c-.34-.34-.33-.9,0-1.24s.9-.33,1.24,0c.07.07.13.13.2.2,1.92,1.85,4.36,2.75,6.71,2.8,2.33.05,4.57-.74,6.12-2.26.04-.04.09-.09.14-.14.33-.35.89-.36,1.24-.02.35.33.36.89.02,1.24-.05.06-.11.11-.17.17-1.89,1.86-4.59,2.82-7.38,2.76-2.77-.06-5.63-1.11-7.89-3.29-.08-.08-.16-.15-.24-.24h0ZM29.92,3.63c.57,0,1.04.46,1.04,1.04s-.46,1.04-1.04,1.04-1.04-.46-1.04-1.04.46-1.04,1.04-1.04Z"/>
</svg>