<svg width="41" height="35" viewBox="0 0 41 35" fill="none" xmlns="http://www.w3.org/2000/svg">
<ellipse cx="16.5645" cy="13.5528" rx="16.5645" ry="13.5528" fill="white"/>
<ellipse cx="28.8623" cy="21.835" rx="11.294" ry="9.28615" fill="#FF9E42"/>
<ellipse cx="28.6113" cy="21.584" rx="9.03518" ry="7.02736" fill="white"/>
<path d="M26.3562 27.1447C25.7507 26.7969 25.679 25.9513 26.2174 25.5065L30.6944 21.8081C31.3164 21.2943 32.2596 21.6907 32.3277 22.4946L32.8863 29.0852C32.9544 29.8891 32.0915 30.4386 31.3918 30.0368L26.3562 27.1447Z" fill="white"/>
<path d="M7.84883 23.9483C7.92487 23.3193 8.55922 22.9187 9.15985 23.1203L15.2077 25.1505C16.0065 25.4187 16.1359 26.4941 15.4234 26.944L8.60998 31.2472C7.89754 31.6972 6.9821 31.1183 7.08322 30.2817L7.84883 23.9483Z" fill="white"/>
</svg>
