<?xml version="1.0" encoding="UTF-8"?>
<!DOCTYPE svg PUBLIC "-//W3C//DTD SVG 1.1//EN" "http://www.w3.org/Graphics/SVG/1.1/DTD/svg11.dtd">
<!-- Creator: CorelDRAW 2019 (64-Bit) -->
<svg xmlns="http://www.w3.org/2000/svg" xml:space="preserve" width="1.15in" height="1.15in" version="1.1" style="shape-rendering:geometricPrecision; text-rendering:geometricPrecision; image-rendering:optimizeQuality; fill-rule:evenodd; clip-rule:evenodd"
viewBox="0 0 8500 11000"
 xmlns:xlink="http://www.w3.org/1999/xlink"
 xmlns:xodm="http://www.corel.com/coreldraw/odm/2003">
 <defs>
  <style type="text/css">
   <![CDATA[
    .fil0 {fill:#FEFEFE}
   ]]>
  </style>
 </defs>
 <g id="Layer_x0020_1">
  <metadata id="CorelCorpID_0Corel-Layer"/>
  <path class="fil0" d="M3916.62 3177.89c1341.35,0 2430.48,886.83 2447.09,1985.94 -215.85,-79.7 -447.39,-120.06 -671.04,-120.06 -652.54,0 -1372.34,343.38 -1573.39,1006.18 -32.04,105.62 -48.41,215.09 -48.41,325.47 0,110.39 16.38,219.86 48.41,325.49 53.86,177.55 145,332.14 262.04,463.38 -150.48,23.78 -305.8,36.37 -464.71,36.37 -68.49,0 -136.29,-2.43 -203.36,-6.96l-934.28 577.18c-181.89,112.36 -282.2,33.87 -261.49,-176.41l70.5 -715.8c-673.3,-358.33 -1118.85,-981.08 -1118.85,-1689.39 0,-1110.85 1095.78,-2011.38 2447.48,-2011.38zm1776.06 2149.49c-739.06,0 -1338.19,469.22 -1338.19,1048.04 0,578.81 599.12,1048.04 1338.19,1048.04 19.25,0 38.38,-0.39 57.44,-1.02l393.7 205.95c111.07,58.09 179.78,17.51 177.63,-91.22l-4.65 -234.52c424.64,-175.66 714.07,-524.95 714.07,-927.22 0,-578.81 -599.13,-1048.04 -1338.19,-1048.04z"/>
 </g>
</svg>
