<svg width="41" height="35" viewBox="0 0 41 35" fill="none" xmlns="http://www.w3.org/2000/svg">
<path d="M15.8662 17.1617C15.8662 15.1902 17.9286 13.5918 20.4725 13.5918C23.0165 13.5918 25.0789 15.1902 25.0789 17.1617C25.0789 19.1332 23.0165 20.7316 20.4725 20.7316C17.9286 20.7316 15.8662 19.1332 15.8662 17.1617Z" fill="white"/>
<path fill-rule="evenodd" clip-rule="evenodd" d="M0 17.1618C0 19.7629 0.870003 20.6389 2.61003 22.3908C6.08437 25.8888 11.9112 29.8548 20.4726 29.8548C29.034 29.8548 34.8607 25.8888 38.3351 22.3908C40.0751 20.6389 40.9452 19.7629 40.9452 17.1618C40.9452 14.5606 40.0751 13.6847 38.3351 11.9328C34.8607 8.43462 29.034 4.46875 20.4726 4.46875C11.9112 4.46875 6.08437 8.43462 2.61003 11.9328C0.870003 13.6847 0 14.5606 0 17.1618ZM20.4726 11.2119C16.2326 11.2119 12.7954 13.8757 12.7954 17.1618C12.7954 20.4478 16.2326 23.1116 20.4726 23.1116C24.7127 23.1116 28.1498 20.4478 28.1498 17.1618C28.1498 13.8757 24.7127 11.2119 20.4726 11.2119Z" fill="white"/>
<rect x="5.7915" width="45.5667" height="3.93074" rx="1.96537" transform="rotate(45 5.7915 0)" fill="white"/>
</svg>
