<svg width="43" height="40" viewBox="0 0 43 40" fill="none" xmlns="http://www.w3.org/2000/svg">
<path d="M6.42449 11.1289C4.58127 12.4448 3.08686 13.8519 1.94172 15.0921C-0.647239 17.8959 -0.647237 22.0859 1.94172 24.8896C5.29942 28.5261 11.6597 33.5975 21.0117 33.5975C23.5305 33.5975 25.8321 33.2297 27.9166 32.6211L24.6845 29.3889C23.5262 29.595 22.302 29.7099 21.0117 29.7099C13.1722 29.7099 7.77119 25.4724 4.79789 22.2523C3.58414 20.9379 3.58414 19.0439 4.79789 17.7295C5.92307 16.5109 7.39592 15.1467 9.21702 13.9215L6.42449 11.1289Z" fill="white"/>
<path d="M14.2723 18.9785C14.2229 19.3093 14.1973 19.6478 14.1973 19.9924C14.1973 23.7498 17.2432 26.7957 21.0006 26.7957C21.345 26.7957 21.6836 26.77 22.0144 26.7206L14.2723 18.9785Z" fill="white"/>
<path d="M27.7482 20.8618L20.1309 13.2444C20.4154 13.2082 20.7054 13.1895 20.9999 13.1895C24.7573 13.1895 27.8032 16.2354 27.8032 19.9927C27.8032 20.2872 27.7845 20.5772 27.7482 20.8618Z" fill="white"/>
<path d="M32.8917 26.0031C34.6734 24.7929 36.1179 23.4522 37.2254 22.2527C38.4391 20.9383 38.4391 19.0443 37.2254 17.7299C34.2522 14.5099 28.8512 10.2724 21.0117 10.2724C19.7665 10.2724 18.5829 10.3792 17.4607 10.572L14.2178 7.3291C16.2729 6.7397 18.5376 6.38477 21.0117 6.38477C30.3636 6.38477 36.7239 11.4562 40.0816 15.0925C42.6706 17.8963 42.6706 22.0863 40.0816 24.8901C38.9539 26.1116 37.4873 27.4949 35.6823 28.7936L32.8917 26.0031Z" fill="white"/>
<path d="M1.58886 3.31827C0.829754 2.55917 0.829754 1.32842 1.58886 0.569332C2.34795 -0.189777 3.57871 -0.189777 4.3378 0.569332L40.4502 36.6818C41.2094 37.4408 41.2094 38.6717 40.4502 39.4307C39.6911 40.1898 38.4603 40.1898 37.7013 39.4307L1.58886 3.31827Z" fill="white"/>
</svg>
