<svg width="138" height="120" viewBox="0 0 138 120" fill="none" xmlns="http://www.w3.org/2000/svg">
<path d="M137.082 15.9276C130.323 19.7282 121.598 38.0252 117.938 36.336C114.278 34.6469 112.307 2.97855 109.072 0C103.583 5.22738 102.877 34.5061 98.2343 36.336C93.588 38.1659 84.5802 17.3341 80.7796 16.9107C78.6693 25.6403 95.5598 79.6933 107.948 79.6933C120.336 79.6933 138.488 24.093 137.082 15.9276Z" fill="#010002"/>
<path d="M38.9243 76.6427C34.2814 74.8127 33.5764 45.534 28.0867 40.3066C24.8502 43.2807 22.8796 74.9535 19.2208 76.6427C15.561 78.3318 6.83594 60.0349 0.0770628 56.2343C-1.32944 64.3952 16.8267 120 29.215 120C41.6033 120 58.4937 65.9469 56.3823 57.2185C52.5783 57.6408 43.5672 78.4726 38.9243 76.6427Z" fill="#010002"/>
</svg>
