<svg width="35" height="35" viewBox="0 0 35 35" fill="none" xmlns="http://www.w3.org/2000/svg">
<path fill-rule="evenodd" clip-rule="evenodd" d="M12.25 4.28252e-06H12.1348C10.5834 -8.32175e-05 9.24677 -0.000153255 8.17637 0.143767C7.02921 0.297994 5.92959 0.645789 5.03769 1.53769C4.14578 2.42962 3.79797 3.52923 3.64374 4.67637C3.49982 5.74678 3.49991 7.08346 3.5 8.6348V8.75V14.875V24.7987C1.46092 25.5194 0 27.4642 0 29.75C0 32.6496 2.35051 35 5.25 35H24.494H24.5C27.3996 35 29.75 32.6496 29.75 29.75V12.25V8.75002H30.625C33.0412 8.75002 35 6.79126 35 4.37502C35 1.95876 33.0412 2.18063e-05 30.625 2.18063e-05C30.4432 2.18063e-05 30.264 0.0110994 30.0881 0.0326419C29.9787 0.0112219 29.8657 4.28252e-06 29.75 4.28252e-06H12.25ZM19.5487 31.5C19.3553 30.9526 19.25 30.3636 19.25 29.75V28H5.25C4.28351 28 3.5 28.7835 3.5 29.75C3.5 30.7165 4.28351 31.5 5.25 31.5H19.5487ZM29.75 5.25002H30.625C31.1082 5.25002 31.5 4.85827 31.5 4.37502C31.5 3.89176 31.1082 3.50002 30.625 3.50002C30.1418 3.50002 29.75 3.89176 29.75 4.37502V5.25002ZM10.5 8.75C10.5 7.78351 11.2835 7 12.25 7H21C21.9665 7 22.75 7.78351 22.75 8.75C22.75 9.71649 21.9665 10.5 21 10.5H12.25C11.2835 10.5 10.5 9.71649 10.5 8.75ZM12.25 14C11.2835 14 10.5 14.7835 10.5 15.75C10.5 16.7165 11.2835 17.5 12.25 17.5H21C21.9665 17.5 22.75 16.7165 22.75 15.75C22.75 14.7835 21.9665 14 21 14H12.25Z" fill="black"/>
</svg>
