<svg width="41" height="25" viewBox="0 0 41 25" fill="none" xmlns="http://www.w3.org/2000/svg">
<path d="M15.6211 12.502C15.6211 10.5604 17.6521 8.98633 20.1574 8.98633C22.6626 8.98633 24.6937 10.5604 24.6937 12.502C24.6937 14.4435 22.6626 16.0176 20.1574 16.0176C17.6521 16.0176 15.6211 14.4435 15.6211 12.502Z" fill="white"/>
<path fill-rule="evenodd" clip-rule="evenodd" d="M0 12.5C0 15.0616 0.856774 15.9242 2.57034 17.6495C5.99185 21.0944 11.7301 25 20.1613 25C28.5925 25 34.3306 21.0944 37.7522 17.6495C39.4657 15.9242 40.3226 15.0616 40.3226 12.5C40.3226 9.93844 39.4657 9.07583 37.7522 7.35052C34.3306 3.90556 28.5925 0 20.1613 0C11.7301 0 5.99185 3.90556 2.57034 7.35052C0.856774 9.07583 0 9.93844 0 12.5ZM20.1613 6.64062C15.9857 6.64062 12.6008 9.26395 12.6008 12.5C12.6008 15.7361 15.9857 18.3594 20.1613 18.3594C24.3369 18.3594 27.7218 15.7361 27.7218 12.5C27.7218 9.26395 24.3369 6.64062 20.1613 6.64062Z" fill="white"/>
</svg>
