<svg width="44" height="44" viewBox="0 0 44 44" fill="none" xmlns="http://www.w3.org/2000/svg">
<path d="M22.3146 13.2422H11.775C8.05508 13.2422 7.21513 15.1022 6.75514 17.4021L5.05518 25.5018H29.0544L27.3545 17.4021C26.8545 15.1022 26.0345 13.2422 22.3146 13.2422Z" stroke="#1D1D21" stroke-width="3.75" stroke-linecap="round" stroke-linejoin="round"/>
<path d="M32.0145 38.7201C32.1744 40.48 30.7745 42 28.9745 42H26.1546C24.5347 42 24.3147 41.3 24.0147 40.46L23.7147 39.56C23.2947 38.3401 23.0147 37.5001 20.8548 37.5001H13.1751C11.0151 37.5001 10.6951 38.4401 10.3151 39.56L10.0152 40.46C9.73517 41.32 9.51516 42 7.87521 42H5.05528C3.25533 42 1.83542 40.48 2.01541 38.7201L2.85537 29.5803C3.07536 27.3204 3.49534 25.4805 7.43522 25.4805H26.5746C30.5145 25.4805 30.9345 27.3204 31.1545 29.5803L32.0145 38.7201Z" stroke="#1D1D21" stroke-width="3.75" stroke-linecap="round" stroke-linejoin="round"/>
<path d="M5.0356 21H3.53564" stroke="#1D1D21" stroke-width="3.75" stroke-linecap="round" stroke-linejoin="round"/>
<path d="M30.5346 21H29.0347" stroke="#1D1D21" stroke-width="3.75" stroke-linecap="round" stroke-linejoin="round"/>
<path d="M8.03516 31.5H12.535" stroke="#1D1D21" stroke-width="3.75" stroke-linecap="round" stroke-linejoin="round"/>
<path d="M21.5352 31.5H26.035" stroke="#1D1D21" stroke-width="3.75" stroke-linecap="round" stroke-linejoin="round"/>
<path d="M35.4543 15.4801C36.0142 14.1801 35.8143 12.4202 34.7743 10.8803C33.7543 9.34032 32.1944 8.48034 30.7744 8.50034" stroke="#1D1D21" stroke-width="3.75" stroke-linecap="round" stroke-linejoin="round"/>
<path d="M41.6746 17.4595C42.5146 14.4396 41.9146 10.7398 39.7747 7.53987C37.6347 4.33997 34.4348 2.37999 31.3149 2" stroke="#1D1D21" stroke-width="3.75" stroke-linecap="round" stroke-linejoin="round"/>
</svg>
