<svg width="40" height="40" viewBox="0 0 40 40" fill="none" xmlns="http://www.w3.org/2000/svg">
<path d="M37.5273 0L28.8058 2.53648L32.337 0.146352C30.1076 0.650074 27.2912 1.6354 23.7515 3.2257L17.974 9.24909L20.0247 5.04148C18.0421 6.14422 15.9404 7.58988 13.9153 9.28313L12.5709 14.7543L12.2816 10.7041C10.2821 12.542 8.40162 14.5841 6.8445 16.7369C5.20825 18.9917 3.92938 21.3742 3.28866 23.7481L0.89598 22.1485C1.1104 24.1651 1.77324 25.9179 2.86067 27.5261L0 26.6496C0.650074 28.6492 1.71283 29.9426 3.50989 30.9892C2.5033 33.8226 2.03106 36.7837 1.52393 39.7362L3.08956 40C4.90534 21.9017 17.7188 10.3638 29.2993 5.25165L29.8864 6.73048C19.5312 11.3678 11.4818 19.1959 7.26994 30.4786C8.81004 30.4871 10.3161 30.2999 11.7116 29.9426L12.1285 24.7607L13.2431 29.4831C14.1706 29.1427 15.0215 28.7343 15.7788 28.2578L14.0174 24.5565L16.8083 27.5175C17.489 26.973 18.0506 26.3603 18.4761 25.6882C21.0628 21.6465 23.7686 17.6303 29.0951 14.2693L25.2066 12.8909L31.1712 13.0696C32.1412 12.576 33.1623 11.9719 33.9366 11.4018L29.7077 11.0615L36.0638 9.56392C36.5573 9.07041 37.0168 8.55137 37.4337 8.03233C38.9058 6.1655 39.9013 4.22208 39.6631 2.4548C39.5524 1.57073 39.0249 0.739417 38.1655 0.273984C37.9528 0.163369 37.723 0.065518 37.5273 0Z" fill="#1D1D21"/>
</svg>
