<svg width="48" height="40" viewBox="0 0 48 40" fill="none" xmlns="http://www.w3.org/2000/svg">
<path d="M35.2941 10.5882C35.2941 7.48162 34.0625 4.66912 32.0864 2.56434C33.1526 1.01103 34.9265 0 36.9485 0C40.2022 0 42.8401 2.63787 42.8401 5.89154C42.8401 9.14522 40.2022 11.7831 36.9485 11.7831C36.3327 11.7831 35.7537 11.6636 35.2022 11.489C35.2298 11.1949 35.2941 10.9007 35.2941 10.5882ZM23.5294 18.8235C28.079 18.8235 31.7647 15.1379 31.7647 10.5882C31.7647 6.0386 28.079 2.35294 23.5294 2.35294C18.9798 2.35294 15.2941 6.0386 15.2941 10.5882C15.2941 15.1379 18.9798 18.8235 23.5294 18.8235ZM23.5294 23.8511C13.4467 23.8511 9.41177 25.864 9.41177 31.921V40H37.6471V31.921C37.6471 25.8272 33.6121 23.8511 23.5294 23.8511ZM12.8676 15.4871C12.0221 15.432 11.1213 15.3952 10.1103 15.3952C2.89522 15.3952 0 16.8382 0 21.1673V28.2353H6.37868C7.9136 22.9228 12.8493 21.1857 17.454 20.6066C15.4504 19.3934 13.8511 17.6195 12.8676 15.4871ZM10.1103 11.7923C10.7261 11.7923 11.3051 11.6728 11.8566 11.4982C11.829 11.1949 11.7647 10.9007 11.7647 10.5882C11.7647 7.48162 12.9963 4.66912 14.9724 2.56434C13.9062 1.02022 12.1324 0 10.1103 0C6.85662 0 4.21875 2.63787 4.21875 5.89154C4.21875 9.14522 6.84743 11.7923 10.1103 11.7923ZM36.9485 15.386C35.9375 15.386 35.0368 15.4228 34.1912 15.4871C33.2077 17.6195 31.5993 19.3934 29.6048 20.6066C34.2096 21.1765 39.1452 22.9228 40.6801 28.2353H47.0588V21.1673C47.0588 16.8015 44.1728 15.386 36.9485 15.386Z" fill="#1D1D21"/>
</svg>
