<svg width="29" height="35" viewBox="0 0 29 35" fill="none" xmlns="http://www.w3.org/2000/svg">
<path fill-rule="evenodd" clip-rule="evenodd" d="M28.636 11.138C28.636 8.50206 26.4993 6.36523 23.8633 6.36523H11.136C8.50011 6.36523 6.36328 8.50206 6.36328 11.138V30.2289C6.36328 32.8648 8.50011 35.0016 11.136 35.0016H23.8633C26.4993 35.0016 28.636 32.8648 28.636 30.2289V11.138ZM25.4542 11.138C25.4542 10.2593 24.7419 9.54705 23.8633 9.54705H11.136C10.2574 9.54705 9.5451 10.2593 9.5451 11.138V30.2289C9.5451 31.1075 10.2574 31.8198 11.136 31.8198H23.8633C24.7419 31.8198 25.4542 31.1075 25.4542 30.2289V11.138Z" fill="white"/>
<path d="M4.77273 3.18182H20.6818C21.5605 3.18182 22.2727 2.46954 22.2727 1.59091C22.2727 0.712282 21.5605 0 20.6818 0H4.77273C2.13683 0 0 2.13683 0 4.77273V27.0455C0 27.9241 0.712282 28.6364 1.59091 28.6364C2.46954 28.6364 3.18182 27.9241 3.18182 27.0455V4.77273C3.18182 3.8941 3.8941 3.18182 4.77273 3.18182Z" fill="white"/>
</svg>
