<svg width="49" height="61" viewBox="0 0 49 61" fill="none" xmlns="http://www.w3.org/2000/svg">
<path d="M15.8968 23.57C16.3262 23.5853 16.7555 23.5547 17.1848 23.478C17.6142 23.4013 17.9975 23.271 18.3348 23.087C18.6722 22.8877 18.9405 22.6193 19.1398 22.282C19.3545 21.9447 19.4618 21.5307 19.4618 21.04C19.4618 20.35 19.2242 19.798 18.7488 19.384C18.2888 18.97 17.6908 18.763 16.9548 18.763C16.4948 18.763 16.0962 18.855 15.7588 19.039C15.4215 19.223 15.1378 19.476 14.9078 19.798C14.6932 20.1047 14.5322 20.4573 14.4248 20.856C14.3175 21.2393 14.2715 21.638 14.2868 22.052H11.6648C11.6955 21.27 11.8412 20.5493 12.1018 19.89C12.3625 19.2153 12.7152 18.6327 13.1598 18.142C13.6198 17.6513 14.1718 17.268 14.8158 16.992C15.4598 16.716 16.1882 16.578 17.0008 16.578C17.6295 16.578 18.2428 16.67 18.8408 16.854C19.4542 17.038 19.9985 17.3063 20.4738 17.659C20.9645 18.0117 21.3555 18.464 21.6468 19.016C21.9382 19.5527 22.0838 20.1737 22.0838 20.879C22.0838 21.6917 21.8998 22.4047 21.5318 23.018C21.1638 23.616 20.5888 24.053 19.8068 24.329V24.375C20.7268 24.559 21.4398 25.019 21.9458 25.755C22.4672 26.4757 22.7278 27.3573 22.7278 28.4C22.7278 29.1667 22.5745 29.8567 22.2678 30.47C21.9612 31.068 21.5472 31.5817 21.0258 32.011C20.5045 32.425 19.8988 32.747 19.2088 32.977C18.5188 33.207 17.7905 33.322 17.0238 33.322C16.0885 33.322 15.2682 33.1917 14.5628 32.931C13.8728 32.655 13.2902 32.2717 12.8148 31.781C12.3548 31.2903 12.0022 30.7 11.7568 30.01C11.5115 29.32 11.3812 28.5533 11.3658 27.71H13.9878C13.9572 28.6913 14.1948 29.5117 14.7008 30.171C15.2222 30.815 15.9965 31.137 17.0238 31.137C17.8978 31.137 18.6262 30.8917 19.2088 30.401C19.8068 29.895 20.1058 29.182 20.1058 28.262C20.1058 27.6333 19.9832 27.135 19.7378 26.767C19.4925 26.399 19.1705 26.123 18.7718 25.939C18.3732 25.7397 17.9208 25.617 17.4148 25.571C16.9242 25.525 16.4182 25.5097 15.8968 25.525V23.57ZM23.7551 16.578H27.1821L30.9081 22.374L34.7951 16.578H38.0151L32.5871 24.49L38.4061 33H34.9101L30.8161 26.721L26.6531 33H23.3641L29.1831 24.49L23.7551 16.578Z" fill="#1D1D21"/>
<path d="M3 12.7778C3 9.35522 3 7.64396 3.66608 6.33673C4.25195 5.18683 5.18683 4.25195 6.33673 3.66608C7.64396 3 9.35522 3 12.7778 3H36C39.4225 3 41.1339 3 42.4411 3.66608C43.5909 4.25195 44.5259 5.18683 45.1117 6.33673C45.7778 7.64396 45.7778 9.35522 45.7778 12.7778V58L24.3889 42.7222L3 58V12.7778Z" stroke="#1D1D21" stroke-width="5" stroke-linejoin="round"/>
</svg>
