<?xml version="1.0" encoding="UTF-8"?>
<svg id="Layer_1" data-name="Layer 1" xmlns="http://www.w3.org/2000/svg" viewBox="0 0 60 38.85">
  <defs>
    <style>
      .cls-1 {
        fill: #0f0f0f;
        fill-rule: evenodd;
        stroke-width: 0px;
      }
    </style>
  </defs>
  <path class="cls-1" d="M29.98,29.14c5.36,0,9.71-4.35,9.71-9.71s-4.35-9.71-9.71-9.71-9.71,4.35-9.71,9.71,4.35,9.71,9.71,9.71ZM29.98,23.57c-2.29,0-4.15-1.86-4.15-4.15s1.86-4.15,4.15-4.15,4.15,1.86,4.15,4.15-1.86,4.15-4.15,4.15Z"/>
  <path class="cls-1" d="M30,0C16.65,0,7.57,7.24,2.77,12.43c-3.7,4-3.7,9.99,0,13.99,4.79,5.19,13.88,12.43,27.23,12.43s22.43-7.24,27.23-12.43c3.7-4,3.7-9.99,0-13.99C52.43,7.24,43.35,0,30,0ZM6.85,16.2c4.25-4.6,11.96-10.65,23.15-10.65s18.9,6.05,23.15,10.65c1.73,1.88,1.73,4.58,0,6.46-4.25,4.6-11.96,10.65-23.15,10.65s-18.9-6.05-23.15-10.65c-1.73-1.88-1.73-4.58,0-6.46Z"/>
</svg>