<?xml version="1.0" encoding="UTF-8"?>
<svg id="Layer_1" data-name="Layer 1" xmlns="http://www.w3.org/2000/svg" viewBox="0 0 82.8 77.91">
  <defs>
    <style>
      .cls-1 {
        fill: #fefefe;
        fill-rule: evenodd;
        stroke-width: 0px;
      }
    </style>
  </defs>
  <g id="Layer_1-2" data-name="Layer_1">
    <path class="cls-1" d="M22.89,0c7.33,0,13.86,3.76,18.13,10.03h0s.38,0,.38,0h.38C46.05,3.76,52.58,0,59.91,0c12.86,0,22.89,11.08,22.89,27.7,0,20.48-18.19,34.77-31.89,45.36-8.43,6.52-10.69,6.45-19.11-.06C18.12,62.4,0,48.16,0,27.7,0,11.08,10.04,0,22.89,0h0ZM11.89,37.43c-2.12,0-3.85-1.89-3.85-4.22s1.72-4.22,3.85-4.22h10.17l9.76-9.4c1.59-1.54,4.02-1.37,5.43.38.09.12.18.24.26.37l12.46,16.42,5.76-6.34c.75-.83,1.73-1.24,2.72-1.24h0s12.47-.01,12.47-.01c2.12,0,3.85,1.89,3.85,4.22s-1.72,4.22-3.85,4.22h-10.88l-7.6,8.36h0c-.08.09-.17.18-.27.26-1.63,1.48-4.04,1.24-5.4-.54l-12.83-16.91-7.77,7.49c-.69.72-1.63,1.17-2.66,1.17h-11.62Z"/>
  </g>
</svg>