<?xml version="1.0" encoding="UTF-8"?>
<!DOCTYPE svg PUBLIC "-//W3C//DTD SVG 1.1//EN" "http://www.w3.org/Graphics/SVG/1.1/DTD/svg11.dtd">
<!-- Creator: CorelDRAW 2019 (64-Bit) -->
<svg xmlns="http://www.w3.org/2000/svg" xml:space="preserve" width="1.15in" height="1.15in" version="1.1" style="shape-rendering:geometricPrecision; text-rendering:geometricPrecision; image-rendering:optimizeQuality; fill-rule:evenodd; clip-rule:evenodd"
viewBox="0 0 8500 11000"
 xmlns:xlink="http://www.w3.org/1999/xlink"
 xmlns:xodm="http://www.corel.com/coreldraw/odm/2003">
 <defs>
  <style type="text/css">
   <![CDATA[
    .fil0 {fill:#FEFEFE}
   ]]>
  </style>
 </defs>
 <g id="Layer_x0020_1">
  <metadata id="CorelCorpID_0Corel-Layer"/>
  <path class="fil0" d="M3040.54 3176.58c478.77,0 905.8,224.5 1184.66,598.16l0.11 -0.05 24.71 0 24.71 0 0.12 0.06c278.86,-373.67 705.88,-598.17 1184.65,-598.17 840.16,0 1496.11,660.89 1496.11,1652 0,1221.66 -1188.47,2073.59 -2083.8,2705.21 -551.07,388.75 -698.93,384.87 -1248.98,-3.83 -894.1,-631.86 -2078.38,-1481.19 -2078.38,-2701.38 0,-991.11 655.95,-1652 1496.11,-1652zm-719.13 2232.24c-138.87,0 -251.45,-112.58 -251.45,-251.45 0,-138.87 112.58,-251.45 251.45,-251.45l664.86 0 637.59 -560.72c104.15,-91.67 262.91,-81.56 354.57,22.59 6.19,7.03 11.89,14.31 17.16,21.81l813.99 979.23 376.55 -378.2c49,-49.27 113.38,-73.92 177.78,-73.92l0 -0.73 814.69 0c138.87,0 251.45,112.58 251.45,251.45 0,138.87 -112.58,251.45 -251.45,251.45l-711.22 0 -496.47 498.65 -0.24 -0.24c-5.52,5.53 -11.31,10.86 -17.44,15.96 -106.32,88.42 -264.19,73.91 -352.61,-32.41l-838.19 -1008.35 -507.94 446.71c-45.15,43.14 -106.33,69.64 -173.7,69.64l-759.37 0z"/>
 </g>
</svg>
