<svg width="41" height="35" viewBox="0 0 41 35" fill="none" xmlns="http://www.w3.org/2000/svg">
<path d="M0 11.8981C0 21.7848 8.1719 27.0534 14.1539 31.7692C16.2648 33.4333 18.2979 35 20.331 35C22.3641 35 24.3972 33.4333 26.5082 31.7692C32.4902 27.0534 40.662 21.7848 40.662 11.8981C40.662 2.01124 29.4795 -5.0003 20.331 4.50478C11.1824 -5.0003 0 2.01124 0 11.8981Z" fill="white"/>
<path d="M34.7527 14.9013H30.9931C29.9466 14.9013 29.4233 14.9013 28.96 15.1077C28.4968 15.314 28.1465 15.7032 27.4461 16.4812L25.8093 18.3002C25.2346 18.9385 24.9474 19.2577 24.583 19.2499C24.2187 19.2421 23.9456 18.9111 23.3996 18.2492L17.7882 11.4475C17.2791 10.8304 17.0245 10.5218 16.6791 10.5011C16.3336 10.4803 16.0439 10.7562 15.4646 11.308L13.0735 13.5852C12.3911 14.2351 12.0498 14.5602 11.6233 14.7308C11.1967 14.9013 10.7254 14.9013 9.78299 14.9013H6.125" stroke="#FF9D41" stroke-width="4" stroke-linecap="round"/>
</svg>
