<?xml version="1.0" encoding="UTF-8"?>
<svg id="Layer_1" data-name="Layer 1" xmlns="http://www.w3.org/2000/svg" viewBox="0 0 60 60">
  <defs>
    <style>
      .cls-1 {
        fill: #000;
        fill-rule: evenodd;
        stroke-width: 0px;
      }
    </style>
  </defs>
  <g id="Page-1">
    <g id="Dribbble-Light-Preview">
      <g id="icons">
        <path id="profile_round-_1342_" data-name="profile_round-[#1342]" class="cls-1" d="M49.69,54H10.31c-2.12,0-3.68-2.09-2.88-4.01,3.71-8.89,12.42-13.99,22.57-13.99s18.86,5.09,22.57,13.99c.8,1.92-.77,4.01-2.88,4.01M17.75,18c0-6.62,5.5-12,12.25-12s12.25,5.38,12.25,12-5.49,12-12.25,12-12.25-5.38-12.25-12M59.87,52.91c-2.23-10.08-9.19-17.51-18.36-20.89,4.86-3.83,7.69-10.03,6.65-16.81-1.21-7.87-7.89-14.17-15.96-15.08C21.07-1.14,11.63,7.35,11.63,18c0,5.67,2.68,10.72,6.87,14.02C9.32,35.39,2.36,42.83.13,52.91c-.81,3.66,2.2,7.09,6.03,7.09h47.68c3.83,0,6.84-3.43,6.03-7.09"/>
      </g>
    </g>
  </g>
</svg>