<svg width="35" height="30" viewBox="0 0 35 30" fill="none" xmlns="http://www.w3.org/2000/svg">
<path d="M22.5 6.42801H11.7857C11.5016 6.42801 11.229 6.31513 11.0281 6.1142C10.8272 5.91327 10.7143 5.64075 10.7143 5.35658C10.7143 5.07242 10.8272 4.7999 11.0281 4.59897C11.229 4.39804 11.5016 4.28516 11.7857 4.28516H22.5C22.7842 4.28516 23.0567 4.39804 23.2576 4.59897C23.4586 4.7999 23.5714 5.07242 23.5714 5.35658C23.5714 5.64075 23.4586 5.91327 23.2576 6.1142C23.0567 6.31513 22.7842 6.42801 22.5 6.42801Z" fill="#1D1D21"/>
<path d="M22.5 10.7151H11.7857C11.5016 10.7151 11.229 10.6022 11.0281 10.4013C10.8272 10.2004 10.7143 9.92785 10.7143 9.64369C10.7143 9.35953 10.8272 9.08701 11.0281 8.88608C11.229 8.68515 11.5016 8.57227 11.7857 8.57227H22.5C22.7842 8.57227 23.0567 8.68515 23.2576 8.88608C23.4586 9.08701 23.5714 9.35953 23.5714 9.64369C23.5714 9.92785 23.4586 10.2004 23.2576 10.4013C23.0567 10.6022 22.7842 10.7151 22.5 10.7151Z" fill="#1D1D21"/>
<path d="M22.5 15.0003H11.7857C11.5016 15.0003 11.229 14.8874 11.0281 14.6865C10.8272 14.4855 10.7143 14.213 10.7143 13.9289C10.7143 13.6447 10.8272 13.3722 11.0281 13.1712C11.229 12.9703 11.5016 12.8574 11.7857 12.8574H22.5C22.7842 12.8574 23.0567 12.9703 23.2576 13.1712C23.4586 13.3722 23.5714 13.6447 23.5714 13.9289C23.5714 14.213 23.4586 14.4855 23.2576 14.6865C23.0567 14.8874 22.7842 15.0003 22.5 15.0003Z" fill="#1D1D21"/>
<path d="M22.5 19.2854H11.7857C11.5016 19.2854 11.229 19.1726 11.0281 18.9716C10.8272 18.7707 10.7143 18.4982 10.7143 18.214C10.7143 17.9298 10.8272 17.6573 11.0281 17.4564C11.229 17.2555 11.5016 17.1426 11.7857 17.1426H22.5C22.7842 17.1426 23.0567 17.2555 23.2576 17.4564C23.4586 17.6573 23.5714 17.9298 23.5714 18.214C23.5714 18.4982 23.4586 18.7707 23.2576 18.9716C23.0567 19.1726 22.7842 19.2854 22.5 19.2854Z" fill="#1D1D21"/>
<path d="M7.49999 15.0003H5.35713C5.07297 15.0003 4.80045 14.8874 4.59952 14.6865C4.39859 14.4855 4.28571 14.213 4.28571 13.9289C4.28571 13.6447 4.39859 13.3722 4.59952 13.1712C4.80045 12.9703 5.07297 12.8574 5.35713 12.8574H7.49999C7.78415 12.8574 8.05667 12.9703 8.25761 13.1712C8.45854 13.3722 8.57142 13.6447 8.57142 13.9289C8.57142 14.213 8.45854 14.4855 8.25761 14.6865C8.05667 14.8874 7.78415 15.0003 7.49999 15.0003Z" fill="#1D1D21"/>
<path d="M7.49999 19.2854H5.35713C5.07297 19.2854 4.80045 19.1726 4.59952 18.9716C4.39859 18.7707 4.28571 18.4982 4.28571 18.214C4.28571 17.9298 4.39859 17.6573 4.59952 17.4564C4.80045 17.2555 5.07297 17.1426 5.35713 17.1426H7.49999C7.78415 17.1426 8.05667 17.2555 8.25761 17.4564C8.45854 17.6573 8.57142 17.9298 8.57142 18.214C8.57142 18.4982 8.45854 18.7707 8.25761 18.9716C8.05667 19.1726 7.78415 19.2854 7.49999 19.2854Z" fill="#1D1D21"/>
<path d="M28.9286 15.0003H26.7857C26.5016 15.0003 26.229 14.8874 26.0281 14.6865C25.8272 14.4855 25.7143 14.213 25.7143 13.9289C25.7143 13.6447 25.8272 13.3722 26.0281 13.1712C26.229 12.9703 26.5016 12.8574 26.7857 12.8574H28.9286C29.2127 12.8574 29.4853 12.9703 29.6862 13.1712C29.8871 13.3722 30 13.6447 30 13.9289C30 14.213 29.8871 14.4855 29.6862 14.6865C29.4853 14.8874 29.2127 15.0003 28.9286 15.0003Z" fill="#1D1D21"/>
<path d="M28.9286 19.2854H26.7857C26.5016 19.2854 26.229 19.1726 26.0281 18.9716C25.8272 18.7707 25.7143 18.4982 25.7143 18.214C25.7143 17.9298 25.8272 17.6573 26.0281 17.4564C26.229 17.2555 26.5016 17.1426 26.7857 17.1426H28.9286C29.2127 17.1426 29.4853 17.2555 29.6862 17.4564C29.8871 17.6573 30 17.9298 30 18.214C30 18.4982 29.8871 18.7707 29.6862 18.9716C29.4853 19.1726 29.2127 19.2854 28.9286 19.2854Z" fill="#1D1D21"/>
<path d="M12.8572 30H7.50002C7.21586 30 6.94334 29.8871 6.7424 29.6862C6.54147 29.4853 6.42859 29.2127 6.42859 28.9286V3.21429C6.42859 2.3618 6.76724 1.54424 7.37003 0.941443C7.97283 0.338647 8.79039 0 9.64287 0H24.6429C25.4954 0 26.3129 0.338647 26.9157 0.941443C27.5185 1.54424 27.8572 2.3618 27.8572 3.21429V5.35714C27.8572 5.6413 27.7443 5.91383 27.5433 6.11476C27.3424 6.31569 27.0699 6.42857 26.7857 6.42857C26.5016 6.42857 26.229 6.31569 26.0281 6.11476C25.8272 5.91383 25.7143 5.6413 25.7143 5.35714V3.21429C25.7143 2.93012 25.6014 2.6576 25.4005 2.45667C25.1996 2.25574 24.927 2.14286 24.6429 2.14286H9.64287C9.35871 2.14286 9.08619 2.25574 8.88526 2.45667C8.68433 2.6576 8.57145 2.93012 8.57145 3.21429V27.8571H12.8572C13.1413 27.8571 13.4138 27.97 13.6148 28.171C13.8157 28.3719 13.9286 28.6444 13.9286 28.9286C13.9286 29.2127 13.8157 29.4853 13.6148 29.6862C13.4138 29.8871 13.1413 30 12.8572 30Z" fill="#1D1D21"/>
<path d="M26.7857 29.9994H17.1428C16.8587 29.9994 16.5862 29.8866 16.3852 29.6856C16.1843 29.4847 16.0714 29.2122 16.0714 28.928C16.0714 28.6439 16.1843 28.3713 16.3852 28.1704C16.5862 27.9695 16.8587 27.8566 17.1428 27.8566H25.7143V12.8566C25.7143 12.5724 25.8271 12.2999 26.0281 12.099C26.229 11.898 26.5015 11.7852 26.7857 11.7852C27.0699 11.7852 27.3424 11.898 27.5433 12.099C27.7442 12.2999 27.8571 12.5724 27.8571 12.8566V28.928C27.8571 29.2122 27.7442 29.4847 27.5433 29.6856C27.3424 29.8866 27.0699 29.9994 26.7857 29.9994Z" fill="#1D1D21"/>
<path d="M7.5 30.0008H1.07143C0.787268 30.0008 0.514746 29.888 0.313814 29.687C0.112882 29.4861 0 29.2136 0 28.9294V11.7866C0 10.9341 0.338647 10.1165 0.941442 9.51371C1.54424 8.91091 2.3618 8.57227 3.21429 8.57227H7.5C7.78416 8.57227 8.05668 8.68515 8.25761 8.88608C8.45855 9.08701 8.57143 9.35953 8.57143 9.64369V28.9294C8.57143 29.2136 8.45855 29.4861 8.25761 29.687C8.05668 29.888 7.78416 30.0008 7.5 30.0008ZM2.14286 27.858H6.42857V10.7151H3.21429C2.93012 10.7151 2.6576 10.828 2.45667 11.0289C2.25574 11.2299 2.14286 11.5024 2.14286 11.7866V27.858Z" fill="#1D1D21"/>
<path d="M33.2143 30.0008H26.7857C26.5016 30.0008 26.229 29.888 26.0281 29.687C25.8272 29.4861 25.7143 29.2136 25.7143 28.9294V9.64369C25.7143 9.35953 25.8272 9.08701 26.0281 8.88608C26.229 8.68515 26.5016 8.57227 26.7857 8.57227H31.0714C31.9239 8.57227 32.7415 8.91091 33.3443 9.51371C33.9471 10.1165 34.2857 10.9341 34.2857 11.7866V28.9294C34.2857 29.2136 34.1728 29.4861 33.9719 29.687C33.771 29.888 33.4985 30.0008 33.2143 30.0008ZM27.8572 27.858H32.1429V11.7866C32.1429 11.5024 32.03 11.2299 31.8291 11.0289C31.6281 10.828 31.3556 10.7151 31.0714 10.7151H27.8572V27.858Z" fill="#1D1D21"/>
<path d="M21.4286 29.9992C21.1444 29.9992 20.8719 29.8863 20.6709 29.6853C20.47 29.4844 20.3571 29.2119 20.3571 28.9277V23.5706H13.9286V28.9277C13.9286 29.2119 13.8157 29.4844 13.6147 29.6853C13.4138 29.8863 13.1413 29.9992 12.8571 29.9992C12.573 29.9992 12.3005 29.8863 12.0995 29.6853C11.8986 29.4844 11.7857 29.2119 11.7857 28.9277V23.5706C11.7857 23.0023 12.0115 22.4572 12.4133 22.0554C12.8152 21.6535 13.3602 21.4277 13.9286 21.4277H20.3571C20.9255 21.4277 21.4705 21.6535 21.8724 22.0554C22.2742 22.4572 22.5 23.0023 22.5 23.5706V28.9277C22.5 29.2119 22.3871 29.4844 22.1862 29.6853C21.9852 29.8863 21.7127 29.9992 21.4286 29.9992Z" fill="#1D1D21"/>
</svg>
