<svg width="117" height="86" viewBox="0 0 117 86" fill="none" xmlns="http://www.w3.org/2000/svg">
<path d="M68.7136 44.9994C68.7136 50.9169 63.9168 55.7137 57.9993 55.7137C52.0822 55.7137 47.2852 50.9169 47.2852 44.9994C47.2852 39.0819 52.0822 34.2852 57.9993 34.2852C63.9168 34.2852 68.7136 39.0819 68.7136 44.9994Z" stroke="black" stroke-width="5" stroke-linecap="round" stroke-linejoin="round"/>
<path d="M57.0794 20C41.0877 20 27.551 30.5103 23 45C27.5509 59.4896 41.0877 70 57.0794 70C73.0708 70 86.6076 59.4896 91.1586 45C86.6076 30.5104 73.0708 20 57.0794 20Z" stroke="black" stroke-width="5" stroke-linecap="round" stroke-linejoin="round"/>
<rect x="110.283" width="6.92308" height="30" rx="3.46154" transform="rotate(40 110.283 0)" fill="#F9C34E"/>
<rect y="4.44922" width="6.92308" height="30" rx="3.46154" transform="rotate(-40 0 4.44922)" fill="#F9C34E"/>
<rect x="92" y="62.4492" width="6.92308" height="30" rx="3.46154" transform="rotate(-40 92 62.4492)" fill="#F9C34E"/>
<rect x="19.2832" y="58" width="6.92308" height="30" rx="3.46154" transform="rotate(40 19.2832 58)" fill="#F9C34E"/>
</svg>
