<?xml version="1.0" encoding="UTF-8"?>
<svg id="Layer_1" data-name="Layer 1" xmlns="http://www.w3.org/2000/svg" viewBox="0 0 50 50">
  <defs>
    <style>
      .cls-1 {
        fill: #000;
        fill-rule: evenodd;
        stroke-width: 0px;
      }
    </style>
  </defs>
  <g id="Page-1">
    <g id="Dribbble-Light-Preview">
      <g id="icons">
        <path id="profile_round-_1342_" data-name="profile_round-[#1342]" class="cls-1" d="M41.41,45H8.6c-1.77,0-3.07-1.74-2.4-3.35,3.09-7.41,10.35-11.65,18.81-11.65s15.72,4.24,18.81,11.65c.67,1.6-.64,3.35-2.4,3.35M14.79,15c0-5.52,4.58-10,10.21-10s10.21,4.48,10.21,10-4.58,10-10.21,10-10.21-4.49-10.21-10M49.89,44.09c-1.86-8.4-7.66-14.6-15.3-17.41,4.05-3.19,6.41-8.36,5.54-14.01C39.13,6.12,33.56.87,26.84.1,17.56-.95,9.69,6.12,9.69,15c0,4.73,2.24,8.93,5.72,11.68C7.77,29.49,1.97,35.69.11,44.09c-.67,3.05,1.84,5.91,5.02,5.91h39.73c3.19,0,5.7-2.86,5.02-5.91"/>
      </g>
    </g>
  </g>
</svg>