<svg width="50" height="48" viewBox="0 0 50 48" fill="none" xmlns="http://www.w3.org/2000/svg">
<path d="M19.5 10V10.5H20H30H30.5V10V7.5C30.5 5.84316 29.1569 4.5 27.5 4.5H22.5C20.8431 4.5 19.5 5.84316 19.5 7.5V10ZM34.5 10V10.5H35H45C47.4854 10.5 49.5 12.5147 49.5 15V42.5C49.5 44.9854 47.4854 47 45 47H5C2.51471 47 0.5 44.9854 0.5 42.5V15C0.5 12.5147 2.51472 10.5 5 10.5H15H15.5V10V7.5C15.5 3.63402 18.634 0.5 22.5 0.5H27.5C31.3661 0.5 34.5 3.63401 34.5 7.5V10ZM5 14.5H4.5V15V42.5V43H5H45H45.5V42.5V15V14.5H45H32.5H17.5H5Z" fill="#1D1D21" stroke="#1D1D21"/>
<path d="M25.0198 19.5005L25.0422 19.5015L25.0645 19.5006C25.0698 19.5004 25.0753 19.5003 25.081 19.5003C26.8308 19.5152 28.5487 20.0135 30.0414 20.948C31.7788 22.0358 33.1178 23.6565 33.8584 25.568C34.5989 27.4795 34.7013 29.5791 34.1503 31.5536L34.1503 31.5537C33.5993 33.5281 32.4244 35.2713 30.801 36.5231C29.1776 37.7748 27.193 38.4679 25.1432 38.4989C23.0936 38.5298 21.0889 37.8969 19.4285 36.6947C17.7682 35.4925 16.5412 33.7855 15.9309 31.8286C15.4065 30.1473 15.3614 28.3592 15.7919 26.6631L15.7919 26.6631C15.835 26.4933 16.0362 26.3649 16.2643 26.4455L16.2643 26.4455C16.4677 26.5173 16.6129 26.7637 16.5494 27.0369L17.0353 27.1498L16.5494 27.0369C16.2015 28.5346 16.2566 30.1042 16.7179 31.583C17.2752 33.3702 18.3957 34.929 19.912 36.0269C21.4283 37.1249 23.259 37.7028 25.1309 37.6745C27.0027 37.6464 28.8151 37.0134 30.2976 35.8703L30.2977 35.8703C31.7801 34.7271 32.853 33.1352 33.3563 31.332L33.3563 31.332C33.8595 29.5289 33.766 27.6114 33.0896 25.8658C32.4133 24.1202 31.1906 22.6402 29.6038 21.6467C28.4952 20.9526 27.2505 20.5221 25.9647 20.3782L25.4091 20.316V20.8751V22.6364C25.4091 22.8623 25.2259 23.0454 25 23.0454C24.774 23.0454 24.5909 22.8623 24.5909 22.6364V19.9091C24.5909 19.6832 24.774 19.5 25 19.5C25.0068 19.5 25.0135 19.5002 25.0198 19.5005Z" fill="#1D1D21" stroke="#1D1D21"/>
<path d="M18.6429 21.932L18.6429 21.932C18.4806 21.8238 18.2646 21.8452 18.1267 21.9831C17.9888 22.121 17.9674 22.3371 18.0756 22.4993C18.0756 22.4993 18.0756 22.4993 18.0756 22.4993M18.6429 21.932L17.6595 22.7767L18.0756 22.4993M18.6429 21.932L25.9822 26.8249C25.9822 26.8249 25.9822 26.8249 25.9822 26.8249C26.2401 26.9968 26.5436 27.2236 26.7496 27.5579C26.9164 27.8288 27.1041 28.2375 27.1102 28.7241C27.1164 29.2266 26.928 29.7666 26.419 30.2755C25.9101 30.7844 25.3701 30.9729 24.8678 30.9666L24.8677 30.9666C24.3812 30.9605 23.9723 30.7728 23.7014 30.606L23.7014 30.606C23.3671 30.4001 23.1404 30.0966 22.9685 29.8387L18.6429 21.932ZM18.0756 22.4993L22.9685 29.8387L18.0756 22.4993ZM23.6492 29.3849L23.6493 29.385C23.8077 29.6224 23.9537 29.8004 24.1304 29.9093C24.3311 30.033 24.5935 30.145 24.8779 30.1485H24.8779C25.146 30.1518 25.4775 30.06 25.8405 29.697C26.2036 29.334 26.2953 29.0024 26.292 28.7344V28.7343C26.2885 28.4501 26.1766 28.1879 26.0531 27.9873C25.9442 27.8103 25.766 27.664 25.5284 27.5057L21.9711 25.1341L21.2777 25.8275L23.6492 29.3849Z" fill="#1D1D21" stroke="#1D1D21"/>
</svg>
