<svg width="40" height="40" viewBox="0 0 40 40" fill="none" xmlns="http://www.w3.org/2000/svg">
<path fill-rule="evenodd" clip-rule="evenodd" d="M33.1251 36H6.87635C5.46357 36 4.42031 34.606 4.95316 33.324C7.42553 27.396 13.2339 24 19.9997 24C26.7676 24 32.5759 27.396 35.0483 33.324C35.5812 34.606 34.5379 36 33.1251 36ZM11.8333 12C11.8333 7.58797 15.498 3.99997 19.9997 3.99997C24.5035 3.99997 28.1661 7.58797 28.1661 12C28.1661 16.412 24.5035 20 19.9997 20C15.498 20 11.8333 16.412 11.8333 12ZM39.9114 35.272C38.4271 28.554 33.7846 23.5959 27.6741 21.3459C30.912 18.7919 32.8005 14.6619 32.1064 10.1399C31.302 4.89387 26.8472 0.695954 21.4697 0.0839538C14.0464 -0.762047 7.75015 4.89797 7.75015 12C7.75015 15.78 9.53859 19.1479 12.3274 21.3459C6.21487 23.5959 1.57433 28.554 0.088048 35.272C-0.450933 37.714 1.558 40 4.10795 40H35.8915C38.4435 40 40.4524 37.714 39.9114 35.272Z" fill="white"/>
</svg>
