<?xml version="1.0" encoding="UTF-8"?>
<svg id="Layer_1" data-name="Layer 1" xmlns="http://www.w3.org/2000/svg" viewBox="0 0 50 32.38">
  <defs>
    <style>
      .cls-1 {
        fill: #0f0f0f;
        fill-rule: evenodd;
        stroke-width: 0px;
      }
    </style>
  </defs>
  <path class="cls-1" d="M24.99,24.28c4.47,0,8.09-3.62,8.09-8.09s-3.62-8.09-8.09-8.09-8.09,3.62-8.09,8.09,3.62,8.09,8.09,8.09ZM24.99,19.65c-1.91,0-3.46-1.55-3.46-3.46s1.55-3.46,3.46-3.46,3.46,1.55,3.46,3.46-1.55,3.46-3.46,3.46Z"/>
  <path class="cls-1" d="M25,0C13.87,0,6.31,6.03,2.31,10.36c-3.08,3.34-3.08,8.32,0,11.66,4,4.33,11.56,10.36,22.69,10.36s18.69-6.03,22.69-10.36c3.08-3.34,3.08-8.32,0-11.66C43.69,6.03,36.13,0,25,0ZM5.71,13.5c3.54-3.83,9.96-8.87,19.29-8.87s15.75,5.04,19.29,8.87c1.44,1.56,1.44,3.82,0,5.38-3.54,3.83-9.96,8.87-19.29,8.87s-15.75-5.04-19.29-8.87c-1.44-1.56-1.44-3.82,0-5.38Z"/>
</svg>