<svg width="45" height="45" viewBox="0 0 45 45" fill="none" xmlns="http://www.w3.org/2000/svg">
<path d="M22.5032 33.7525C28.7171 33.7525 33.7544 28.7151 33.7544 22.5012C33.7544 16.2873 28.7171 11.25 22.5032 11.25C16.2893 11.25 11.252 16.2873 11.252 22.5012C11.252 28.7151 16.2893 33.7525 22.5032 33.7525Z" fill="#1D1D21"/>
<path fill-rule="evenodd" clip-rule="evenodd" d="M8.4386 22.5001C8.4386 20.9454 7.18065 19.6875 5.62597 19.6875H2.81263C1.25795 19.6875 0 20.9454 0 22.5001C0 24.0548 1.25795 25.3128 2.81263 25.3128H5.62526C7.18065 25.3128 8.4386 24.0548 8.4386 22.5001Z" fill="#1D1D21"/>
<path fill-rule="evenodd" clip-rule="evenodd" d="M8.58124 32.4376L6.5899 34.4296C5.49087 35.5279 5.49087 37.3083 6.5899 38.4067C7.68823 39.505 9.46863 39.505 10.5677 38.4067L12.5597 36.4153C13.658 35.317 13.658 33.5359 12.5597 32.4376C11.46 31.3385 9.68028 31.3385 8.58124 32.4376Z" fill="#1D1D21"/>
<path fill-rule="evenodd" clip-rule="evenodd" d="M22.5035 36.5625C20.9489 36.5625 19.6909 37.8204 19.6909 39.3751V42.1885C19.6909 43.7431 20.9489 45.0011 22.5035 45.0011C24.0582 45.0011 25.3162 43.7431 25.3162 42.1885L25.3134 39.3751C25.3162 37.8204 24.0554 36.5625 22.5035 36.5625Z" fill="#1D1D21"/>
<path fill-rule="evenodd" clip-rule="evenodd" d="M36.4222 32.4434C35.326 31.3423 33.5456 31.3423 32.4473 32.4406C31.349 33.5389 31.349 35.32 32.4473 36.4183L34.4365 38.4069C35.5348 39.5108 37.3152 39.5052 38.4136 38.4069C39.5119 37.3085 39.5147 35.531 38.4136 34.4298L36.4222 32.4434Z" fill="#1D1D21"/>
<path fill-rule="evenodd" clip-rule="evenodd" d="M42.1939 19.6875L39.3749 19.6931C37.8258 19.6875 36.5679 20.9454 36.5679 22.5001C36.5623 24.0548 37.8258 25.3128 39.3749 25.3128H42.1882C43.7485 25.3184 45.0009 24.0548 45.0009 22.5001C45.0037 20.9483 43.7485 19.6875 42.1939 19.6875Z" fill="#1D1D21"/>
<path fill-rule="evenodd" clip-rule="evenodd" d="M36.4222 12.5555L38.4108 10.5662C39.5175 9.46507 39.5091 7.68749 38.4108 6.58846C37.3145 5.48661 35.5348 5.48661 34.4365 6.58564L32.4473 8.5798C31.349 9.67321 31.349 11.4529 32.4473 12.5519C33.54 13.6573 35.326 13.6517 36.4222 12.5555Z" fill="#1D1D21"/>
<path fill-rule="evenodd" clip-rule="evenodd" d="M22.5035 8.43229C24.0554 8.44354 25.3162 7.17434 25.3162 5.62528V2.81265C25.3162 1.25234 24.0582 1.87928e-05 22.5035 1.87928e-05C20.9489 -0.00560647 19.6909 1.25234 19.6909 2.80773L19.6965 5.62598C19.6909 7.17434 20.9489 8.43229 22.5035 8.43229Z" fill="#1D1D21"/>
<path fill-rule="evenodd" clip-rule="evenodd" d="M8.58717 12.5505C9.68058 13.6489 11.4553 13.6489 12.5572 12.5477C13.664 11.4571 13.6583 9.67181 12.5628 8.57558L10.5736 6.58705C9.46963 5.48239 7.69486 5.49083 6.59582 6.58705C5.48835 7.68328 5.48835 9.46297 6.58739 10.562L8.58717 12.5505Z" fill="#1D1D21"/>
</svg>
