<svg width="131" height="60" viewBox="0 0 131 60" fill="none" xmlns="http://www.w3.org/2000/svg">
<path d="M65.2386 38.0102C67.8926 38.0102 70.438 36.9559 72.3147 35.0792C74.1913 33.2025 75.2457 30.6572 75.2457 28.0032C75.2457 25.3491 74.1913 22.8038 72.3147 20.9271C70.438 19.0504 67.8926 17.9961 65.2386 17.9961C62.5846 17.9961 60.0392 19.0504 58.1625 20.9271C56.2859 22.8038 55.2315 25.3491 55.2315 28.0032C55.2315 30.6572 56.2859 33.2025 58.1625 35.0792C60.0392 36.9559 62.5846 38.0102 65.2386 38.0102ZM65.2386 42.4068C51.9336 42.4068 43.4043 49.7491 43.4043 53.324V59.9993H87.0729V53.324C87.0729 49.0008 78.9982 42.4068 65.2386 42.4068Z" fill="black"/>
<path d="M108.643 20.0141C111.297 20.0141 113.842 18.9598 115.719 17.0831C117.596 15.2064 118.65 12.6611 118.65 10.0071C118.65 7.35302 117.596 4.80769 115.719 2.931C113.842 1.05431 111.297 0 108.643 0C105.989 0 103.444 1.05431 101.567 2.931C99.6902 4.80769 98.6358 7.35302 98.6358 10.0071C98.6358 12.6611 99.6902 15.2064 101.567 17.0831C103.444 18.9598 105.989 20.0141 108.643 20.0141ZM108.643 24.4107C95.3379 24.4107 86.8086 31.753 86.8086 35.3279V42.0032H130.477V35.3279C130.477 31.0047 122.402 24.4107 108.643 24.4107Z" fill="black"/>
<path d="M21.8343 20.0141C24.4883 20.0141 27.0337 18.9598 28.9104 17.0831C30.787 15.2064 31.8414 12.6611 31.8414 10.0071C31.8414 7.35302 30.787 4.80769 28.9104 2.931C27.0337 1.05431 24.4883 0 21.8343 0C19.1803 0 16.6349 1.05431 14.7582 2.931C12.8816 4.80769 11.8272 7.35302 11.8272 10.0071C11.8272 12.6611 12.8816 15.2064 14.7582 17.0831C16.6349 18.9598 19.1803 20.0141 21.8343 20.0141ZM21.8343 24.4107C8.52927 24.4107 0 31.753 0 35.3279V42.0032H43.6686V35.3279C43.6686 31.0047 35.5939 24.4107 21.8343 24.4107Z" fill="black"/>
</svg>
