<?xml version="1.0" encoding="UTF-8"?>
<svg id="Layer_1" data-name="Layer 1" xmlns="http://www.w3.org/2000/svg" viewBox="0 0 60 52.23">
  <defs>
    <style>
      .cls-1 {
        fill: #1c274c;
        stroke-width: 0px;
      }
    </style>
  </defs>
  <path class="cls-1" d="M21.52,45.7l1.3-1.64-1.3,1.64ZM30,8.28l-1.51,1.45c.39.41.94.64,1.51.64s1.11-.23,1.51-.64l-1.51-1.45ZM38.48,45.7l1.3,1.64-1.3-1.64ZM22.82,44.06c-4.23-3.33-8.85-6.59-12.52-10.72-3.6-4.05-6.11-8.78-6.11-14.91H0c0,7.44,3.1,13.11,7.16,17.69,3.99,4.5,9.08,8.09,13.06,11.23l2.59-3.29ZM4.19,18.43c0-6,3.39-11.04,8.02-13.15,4.5-2.06,10.54-1.51,16.28,4.46l3.02-2.9C24.69-.25,16.78-1.42,10.47,1.47,4.28,4.29,0,10.86,0,18.43h4.19ZM20.23,47.35c1.43,1.13,2.96,2.33,4.52,3.24,1.55.91,3.33,1.65,5.26,1.65v-4.19c-.86,0-1.88-.34-3.14-1.07-1.26-.74-2.57-1.75-4.04-2.91l-2.59,3.29ZM39.77,47.35c3.98-3.14,9.07-6.73,13.06-11.23,4.06-4.58,7.16-10.25,7.16-17.69h-4.19c0,6.13-2.51,10.86-6.11,14.91-3.67,4.13-8.29,7.39-12.52,10.72l2.59,3.29ZM60,18.43c0-7.57-4.28-14.13-10.47-16.96-6.32-2.89-14.23-1.72-21.04,5.36l3.02,2.9c5.74-5.97,11.79-6.51,16.28-4.46,4.63,2.12,8.02,7.15,8.02,13.15h4.19ZM37.18,44.06c-1.47,1.16-2.78,2.17-4.04,2.91-1.26.74-2.28,1.07-3.14,1.07v4.19c1.93,0,3.7-.74,5.26-1.65,1.56-.91,3.09-2.11,4.52-3.24l-2.59-3.29Z"/>
</svg>