<svg width="54" height="40" viewBox="0 0 54 40" fill="none" xmlns="http://www.w3.org/2000/svg">
<path d="M32.4859 4.2834C33.3398 4.38798 34.1047 4.79139 34.8367 5.52334C36.0288 6.71545 36.9378 8.63954 37.6231 10.8988C38.306 13.1505 38.7563 15.6993 39.0526 18.1072C39.6326 22.8214 39.6183 26.9627 39.6174 27.2095C39.6174 27.2147 39.6174 27.2182 39.6174 27.2199C39.6174 27.6424 39.9539 28.0732 40.4707 28.0732C40.7065 28.0732 40.9173 27.9582 41.0632 27.8124C41.209 27.6666 41.3239 27.4558 41.3239 27.2199C41.3239 27.209 41.3239 27.1944 41.324 27.1762C41.325 26.5938 41.3324 22.3494 40.7129 17.5549C40.3935 15.0832 39.9065 12.4569 39.1626 10.1066C38.4874 7.97306 37.5928 6.0417 36.3994 4.66272C45.8563 6.47447 52.9912 14.1812 53.1154 25.9348C53.1088 25.9381 53.1021 25.9416 53.0951 25.9452C52.9753 26.0061 52.7911 26.0955 52.5384 26.2059C52.0331 26.4269 51.2538 26.7323 50.1685 27.0644C47.998 27.7286 44.6027 28.4994 39.7261 28.9127L39.6076 28.9227L39.5281 29.0113C37.8476 30.8847 35.2214 33.565 32.2089 35.7747C29.1876 37.9908 25.8223 39.7 22.656 39.7C18.2423 39.7 15.9822 38.5885 13.854 37.4663C13.7713 37.4227 13.6888 37.379 13.6063 37.3354C11.5371 36.2411 9.49921 35.1633 5.72654 35.1633C4.88217 35.1633 4.07538 35.3525 3.33756 35.5543C3.17683 35.5983 3.0204 35.6425 2.86782 35.6857C2.30581 35.8445 1.79619 35.9886 1.31706 36.0511L1.31706 36.051L1.31136 36.0519C0.478775 36.1768 -0.0442044 35.1857 0.57195 34.5692C0.572016 34.5691 0.572082 34.569 0.572148 34.569L10.9727 24.2238L11.0531 24.1438L11.0605 24.0306C11.6778 14.5648 16.5388 8.04046 24.2242 5.4859C21.6054 7.8276 20.1025 11.2002 19.2424 14.1199C18.2521 17.4813 18.096 20.3038 18.096 20.4149C18.096 20.8374 18.4324 21.2682 18.9492 21.2682C19.1851 21.2682 19.3959 21.1533 19.5417 21.0074C19.6876 20.8616 19.8025 20.6508 19.8025 20.4149C19.8025 20.4155 19.8026 20.4139 19.8028 20.4099C19.8036 20.3931 19.8067 20.3343 19.8143 20.2299C19.8233 20.1076 19.8381 19.9318 19.8608 19.71C19.9062 19.2663 19.9836 18.6395 20.1112 17.8901C20.3665 16.3899 20.8217 14.4047 21.6204 12.4147C23.2211 8.42674 26.1618 4.50033 31.5693 4.2834H31.5701H31.5711H31.5721H31.5731H31.574H31.575H31.576H31.577H31.5779H31.5789H31.5799H31.5808H31.5818H31.5828H31.5838H31.5847H31.5857H31.5867H31.5877H31.5886H31.5896H31.5906H31.5915H31.5925H31.5935H31.5945H31.5954H31.5964H31.5974H31.5983H31.5993H31.6003H31.6013H31.6022H31.6032H31.6042H31.6052H31.6061H31.6071H31.6081H31.609H31.61H31.611H31.612H31.6129H31.6139H31.6149H31.6159H31.6168H31.6178H31.6188H31.6197H31.6207H31.6217H31.6227H31.6236H31.6246H31.6256H31.6266H31.6275H31.6285H31.6295H31.6304H31.6314H31.6324H31.6334H31.6343H31.6353H31.6363H31.6372H31.6382H31.6392H31.6402H31.6411H31.6421H31.6431H31.6441H31.645H31.646H31.647H31.6479H31.6489H31.6499H31.6509H31.6518H31.6528H31.6538H31.6548H31.6557H31.6567H31.6577H31.6586H31.6596H31.6606H31.6616H31.6625H31.6635H31.6645H31.6655H31.6664H31.6674H31.6684H31.6693H31.6703H31.6713H31.6723H31.6732H31.6742H31.6752H31.6761H31.6771H31.6781H31.6791H31.68H31.681H31.682H31.683H31.6839H31.6849H31.6859H31.6868H31.6878H31.6888H31.6898H31.6907H31.6917H31.6927H31.6937H31.6946H31.6956H31.6966H31.6975H31.6985H31.6995H31.7005H31.7014H31.7024H31.7034H31.7044H31.7053H31.7063H31.7073H31.7082H31.7092H31.7102H31.7112H31.7121H31.7131H31.7141H31.715H31.716H31.717H31.718H31.7189H31.7199H31.7209H31.7219H31.7228H31.7238H31.7248H31.7257H31.7267H31.7277H31.7287H31.7296H31.7306H31.7316H31.7326H31.7335H31.7345H31.7355H31.7364H31.7374H31.7384H31.7394H31.7403H31.7413H31.7423H31.7433H31.7442H31.7452H31.7462H31.7471H31.7481H31.7491H31.7501H31.751H31.752H31.753H31.7539H31.7549H31.7559H31.7569H31.7578H31.7588H31.7598H31.7608H31.7617H31.7627H31.7637H31.7646H31.7656H31.7666H31.7676H31.7685H31.7695H31.7705H31.7715H31.7724H31.7734H31.7744H31.7753H31.7763H31.7773H31.7783H31.7792H31.7802H31.7812H31.7822H31.7831H31.7841H31.7851H31.786H31.787H31.788H31.789H31.7899H31.7909H31.7919H31.7928H31.7938H31.7948H31.7958H31.7967H31.7977H31.7987H31.7997H31.8006H31.8016H31.8026H31.8035H31.8045H31.8055H31.8065H31.8074H31.8084H31.8094H31.8104H31.8113H31.8123H31.8133H31.8142H31.8152H31.8162H31.8172H31.8181H31.8191H31.8201H31.8211H31.822H31.823H31.824H31.8249H31.8259H31.8269H31.8279H31.8288H31.8298H31.8308H31.8317H31.8327H31.8337H31.8347H31.8356H31.8366H31.8376H31.8386H31.8395H31.8405H31.8415H31.8424H31.8434H31.8444H31.8454H31.8463H31.8473H31.8483H31.8493H31.8502H31.8512H31.8522H31.8531H31.8541H31.8551H31.8561H31.857H31.858H31.859H31.86H31.8609H31.8619H31.8629H31.8638H31.8648H31.8658H31.8668H31.8677H31.8687H31.8697H31.8706H31.8716H31.8726H31.8736H31.8745H31.8755H31.8765H31.8775H31.8784H31.8794H31.8804H31.8813H31.8823H31.8833H31.8843H31.8852H31.8862H31.8872H31.8882H31.8891H31.8901H31.8911H31.892H31.893H31.894H31.895H31.8959H31.8969H31.8979H31.8989H31.8998H31.9008H31.9018H31.9027H31.9037H31.9047H31.9057H31.9066H31.9076H31.9086H31.9096H31.9105H31.9115H31.9125H31.9134H31.9144H31.9154H31.9164H31.9173H31.9183H31.9193H31.9202H31.9212H31.9222H31.9232H31.9241H31.9251H31.9261H31.9271H31.928H31.929H31.93H31.9309H31.9319H31.9329H31.9339H31.9348H31.9358H31.9368H31.9378H31.9387H31.9397H31.9407H31.9416H31.9426H31.9436H31.9446H31.9455H31.9465H31.9475H31.9485H31.9494H31.9504H31.9514H31.9523H31.9533H31.9543H31.9553H31.9562H31.9572H31.9582H31.9591H31.9601H31.9611H31.9621H31.963H31.964H31.965H31.966H31.9669H31.9679H31.9689H31.9698H31.9708H31.9718H31.9728H31.9737H31.9747H31.9757H31.9767H31.9776H31.9786H31.9796H31.9805H31.9815H31.9825H31.9835H31.9844H31.9854H31.9864H31.9874H31.9883H31.9893H31.9903H31.9912H31.9922H31.9932H31.9942H31.9951H31.9961H31.9971H31.9981H31.999H32H32.001H32.0019H32.0029H32.0039H32.0049H32.0058H32.0068H32.0078H32.0087H32.0097H32.0107H32.0117H32.0126H32.0136H32.0146H32.0156H32.0165H32.0175H32.0185H32.0194H32.0204H32.0214H32.0224H32.0233H32.0243H32.0253H32.0263H32.0272H32.0282H32.0292H32.0301H32.0311H32.0321H32.0331H32.034H32.035H32.036H32.0369H32.0379H32.0389H32.0399H32.0408H32.0418H32.0428H32.0438H32.0447H32.0457H32.0467H32.0476H32.0486H32.0496H32.0506H32.0515H32.0525H32.0535H32.0545H32.0554H32.0564H32.0574H32.0583H32.0593H32.0603H32.0613H32.0622H32.0632H32.0642H32.0651H32.0661H32.0671H32.068H32.069H32.07H32.0709H32.0719H32.0728H32.0738H32.0748H32.0757H32.0767H32.0776H32.0786H32.0795H32.0805H32.0814H32.0824H32.0833H32.0843H32.0852H32.0861H32.0871H32.088H32.089H32.0899H32.0908H32.0918H32.0927H32.0936H32.0946H32.0955H32.0964H32.0974H32.0983H32.0992H32.1001H32.1011H32.102H32.1029H32.1038H32.1047H32.1057H32.1066H32.1075H32.1084H32.1093H32.1102H32.1112H32.1121H32.113H32.1139H32.1148H32.1157H32.1166H32.1175H32.1184H32.1193H32.1202H32.1211H32.122H32.1229H32.1238H32.1247H32.1256H32.1265H32.1274H32.1283H32.1292H32.1301H32.131H32.1319H32.1328H32.1337H32.1345H32.1354H32.1363H32.1372H32.1381H32.139H32.1399H32.1407H32.1416H32.1425H32.1434H32.1443H32.1451H32.146H32.1469H32.1478H32.1486H32.1495H32.1504H32.1513H32.1521H32.153H32.1539H32.1547H32.1556H32.1565H32.1574H32.1582H32.1591H32.1599H32.1608H32.1617H32.1625H32.1634H32.1643H32.1651H32.166H32.1668H32.1677H32.1686H32.1694H32.1703H32.1711H32.172H32.1728H32.1737H32.1745H32.1754H32.1763H32.1771H32.178H32.1788H32.1796H32.1805H32.1813H32.1822H32.183H32.1839H32.1847H32.1856H32.1864H32.1873H32.1881H32.189H32.1898H32.1906H32.1915H32.1923H32.1932H32.194H32.1948H32.1957H32.1965H32.1974H32.1982H32.199H32.1999H32.2007H32.2015H32.2024H32.2032H32.204H32.2049H32.2057H32.2065H32.2074H32.2082H32.209H32.2099H32.2107H32.2115H32.2123H32.2132H32.214H32.2148H32.2157H32.2165H32.2173H32.2181H32.219H32.2198H32.2206H32.2214H32.2223H32.2231H32.2239H32.2247H32.2256H32.2264H32.2272H32.228H32.2288H32.2297H32.2305H32.2313H32.2321H32.2329H32.2338H32.2346H32.2354H32.2362H32.237H32.2379H32.2387H32.2395H32.2403H32.2411H32.2419H32.2428H32.2436H32.2444H32.2452H32.246H32.2468H32.2477H32.2485H32.2493H32.2501H32.2509H32.2517H32.2525H32.2533H32.2542H32.255H32.2558H32.2566H32.2574H32.2582H32.259H32.2599H32.2607H32.2615H32.2623H32.2631H32.2639H32.2647H32.2655H32.2663H32.2672H32.268H32.2688H32.2696H32.2704H32.2712H32.272H32.2728H32.2736H32.2745H32.2753H32.2761H32.2769H32.2777H32.2785H32.2793H32.2801H32.2809H32.2818H32.2826H32.2834H32.2842H32.285H32.2858H32.2866H32.2874H32.2882H32.289H32.2899H32.2907H32.2915H32.2923H32.2931H32.2939H32.2947H32.2955H32.2963H32.2972H32.298H32.2988H32.2996H32.3004H32.3012H32.302H32.3028H32.3036H32.3045H32.3053H32.3061H32.3069H32.3077H32.3085H32.3093H32.3102H32.311H32.3118H32.3126H32.3134H32.3142H32.315H32.3158H32.3167H32.3175H32.3183H32.3191H32.3199H32.3207H32.3216H32.3224H32.3232H32.324H32.3248H32.3256H32.3265H32.3273H32.3281H32.3289H32.3297H32.3305H32.3314H32.3322H32.333H32.3338H32.3346H32.3355H32.3363H32.3371H32.3379H32.3388H32.3396H32.3404H32.3412H32.342H32.3429H32.3437H32.3445H32.3453H32.3462H32.347H32.3478H32.3486H32.3495H32.3503H32.3511H32.352H32.3528H32.3536H32.3544H32.3553H32.3561H32.3569H32.3578H32.3586H32.3594H32.3603H32.3611H32.3619H32.3628H32.3636H32.3644H32.3653H32.3661H32.3669H32.3678H32.3686H32.3694H32.3703H32.3711H32.372H32.3728H32.3736H32.3745H32.3753H32.3762H32.377H32.3779H32.3787H32.3795H32.3804H32.3812H32.3821H32.3829H32.3838H32.3846H32.3855H32.3863H32.3872H32.388H32.3889H32.3897H32.3906H32.3914H32.3923H32.3931H32.394H32.3949H32.3957H32.3966H32.3974H32.3983H32.3991H32.4H32.4009H32.4017H32.4026H32.4035H32.4043H32.4052H32.406H32.4069H32.4078H32.4086H32.4095H32.4104H32.4112H32.4121H32.413H32.4139H32.4147H32.4156H32.4165H32.4174H32.4182H32.4191H32.42H32.4209H32.4217H32.4226H32.4235H32.4244H32.4253H32.4262H32.427H32.4279H32.4288H32.4297H32.4306H32.4315H32.4324H32.4332H32.4341H32.435H32.4359H32.4368H32.4377H32.4386H32.4395H32.4404H32.4413H32.4422H32.4431H32.444H32.4449H32.4458H32.4467H32.4476H32.4485H32.4494H32.4503H32.4512H32.4522H32.4531H32.454H32.4549H32.4558H32.4567H32.4576H32.4585H32.4595H32.4604H32.4613H32.4622H32.4632H32.4641H32.465H32.4659H32.4669H32.4678H32.4687H32.4696H32.4706H32.4715H32.4724H32.4734H32.4743H32.4752H32.4762H32.4771H32.4781H32.479H32.4799H32.4809H32.4818H32.4828H32.4837H32.4847H32.4856H32.4859ZM25.2938 26.1079L25.2945 26.1082C27.1736 26.9925 29.1089 27.8978 31.0125 28.5811C32.9154 29.2642 34.8059 29.7329 36.5979 29.7329C37.1319 29.7329 37.4512 29.2831 37.4512 28.8243C37.4512 28.5902 37.3718 28.3718 37.2112 28.2111C37.0505 28.0505 36.8321 27.9711 36.5979 27.9711C35.0443 27.9711 33.3258 27.5416 31.5273 26.8895C29.7304 26.2379 27.8754 25.3725 26.0477 24.5141L26.047 24.5138C24.3899 23.7404 22.7739 22.9879 21.2664 22.4296C19.7614 21.8722 18.3386 21.4981 17.0682 21.4981C15.3599 21.4981 14.1859 21.68 13.4168 21.8813C13.0324 21.9819 12.748 22.0876 12.5482 22.1785C12.4484 22.2239 12.3683 22.2663 12.3067 22.3032C12.2649 22.3283 12.222 22.3565 12.1858 22.3865C11.7676 22.6559 11.7099 23.1695 11.9423 23.5568C12.206 23.9963 12.7292 24.0622 13.1237 23.8286L13.1267 23.8269C13.1318 23.8243 13.1411 23.8195 13.155 23.8128C13.1828 23.7995 13.2289 23.7787 13.295 23.7528C13.4274 23.7011 13.6405 23.6291 13.9491 23.5561C14.5666 23.4101 15.5666 23.2599 17.0682 23.2599C18.1197 23.2599 19.3791 23.5902 20.787 24.119C22.1912 24.6464 23.7154 25.3602 25.2938 26.1079ZM32.0613 0.3C32.7701 0.3 33.3501 0.770338 33.5313 1.43733C33.0472 1.39523 32.555 1.35975 32.0613 1.35975H32.0548C31.576 1.35975 31.0874 1.35975 30.5956 1.38788C30.7809 0.766028 31.3542 0.3 32.0613 0.3Z" fill="#1D1D21" stroke="#1D1D21" stroke-width="0.6"/>
</svg>
