<svg width="370" height="317" viewBox="0 0 370 317" fill="none" xmlns="http://www.w3.org/2000/svg">
<path d="M87.5309 0.757796C64.4642 3.9578 41.3975 16.8911 26.0642 35.2911C-2.73581 70.0911 -8.06914 119.824 12.0642 167.958C14.7309 174.224 16.9975 179.424 17.1309 179.424C17.1309 179.424 17.2642 171.824 17.3975 162.358C17.6642 136.224 22.9975 117.558 35.7975 98.3578C52.9975 72.4911 79.9309 58.0911 111.131 58.0911C139.398 58.0911 160.331 67.9578 177.531 89.4245C184.064 97.6911 191.798 111.424 195.798 122.091L198.064 128.091L228.064 143.424C244.598 151.824 259.531 160.224 261.398 161.958C266.331 166.891 265.798 174.491 260.064 180.224L255.531 184.758H198.998C142.998 184.758 142.464 184.758 136.598 187.824C128.464 191.958 125.531 196.491 124.864 205.958C124.331 212.758 124.864 215.291 128.198 222.358C130.331 227.024 136.331 235.824 141.398 242.091C157.131 261.291 187.798 302.358 192.064 309.691C194.198 313.558 196.731 316.758 197.664 316.758C200.198 316.758 212.331 310.491 220.998 304.491C232.464 296.758 282.064 257.958 296.731 245.291C333.531 213.424 356.198 180.891 365.531 146.758C368.864 134.624 369.264 131.424 369.264 110.091C369.264 83.6911 367.931 77.1578 359.131 58.7578C348.731 37.1578 332.331 20.0911 311.931 10.2245C297.131 2.89113 286.598 0.357796 270.598 0.357796C242.864 0.357796 220.198 10.0911 192.998 33.8245L184.598 41.0245L175.664 32.7578C150.064 8.7578 117.131 -3.2422 87.5309 0.757796Z" fill="#FF6767"/>
<path d="M116.464 112.624C113.398 115.691 112.598 117.691 112.598 122.091C112.598 134.224 126.731 140.091 135.398 131.557C143.931 122.891 138.064 108.757 125.931 108.757C121.531 108.757 119.531 109.557 116.464 112.624Z" fill="#FF6767"/>
</svg>
