<svg width="49" height="61" viewBox="0 0 49 61" fill="none" xmlns="http://www.w3.org/2000/svg">
<path d="M22.5438 33H11.5498C11.5652 31.666 11.8872 30.5007 12.5158 29.504C13.1445 28.5073 14.0032 27.641 15.0918 26.905C15.6132 26.5217 16.1575 26.1537 16.7248 25.801C17.2922 25.433 17.8135 25.042 18.2888 24.628C18.7642 24.214 19.1552 23.7693 19.4618 23.294C19.7685 22.8033 19.9295 22.2437 19.9448 21.615C19.9448 21.3237 19.9065 21.017 19.8298 20.695C19.7685 20.3577 19.6382 20.051 19.4388 19.775C19.2395 19.4837 18.9635 19.246 18.6108 19.062C18.2582 18.8627 17.7982 18.763 17.2308 18.763C16.7095 18.763 16.2725 18.8703 15.9198 19.085C15.5825 19.2843 15.3065 19.568 15.0918 19.936C14.8925 20.2887 14.7392 20.7103 14.6318 21.201C14.5398 21.6917 14.4862 22.2207 14.4708 22.788H11.8488C11.8488 21.8987 11.9638 21.0783 12.1938 20.327C12.4392 19.5603 12.7995 18.901 13.2748 18.349C13.7502 17.797 14.3252 17.3677 14.9998 17.061C15.6898 16.739 16.4872 16.578 17.3918 16.578C18.3732 16.578 19.1935 16.739 19.8528 17.061C20.5122 17.383 21.0412 17.7893 21.4398 18.28C21.8538 18.7707 22.1452 19.3073 22.3138 19.89C22.4825 20.4573 22.5668 21.0017 22.5668 21.523C22.5668 22.167 22.4672 22.7497 22.2678 23.271C22.0685 23.7923 21.8002 24.2753 21.4628 24.72C21.1255 25.1493 20.7422 25.548 20.3128 25.916C19.8835 26.284 19.4388 26.629 18.9788 26.951C18.5188 27.273 18.0588 27.5797 17.5988 27.871C17.1388 28.1623 16.7095 28.4537 16.3108 28.745C15.9275 29.0363 15.5902 29.343 15.2988 29.665C15.0075 29.9717 14.8082 30.3013 14.7008 30.654H22.5438V33ZM23.7551 16.578H27.1821L30.9081 22.374L34.7951 16.578H38.0151L32.5871 24.49L38.4061 33H34.9101L30.8161 26.721L26.6531 33H23.3641L29.1831 24.49L23.7551 16.578Z" fill="#1D1D21"/>
<path d="M3 12.7778C3 9.35522 3 7.64396 3.66608 6.33673C4.25195 5.18683 5.18683 4.25195 6.33673 3.66608C7.64396 3 9.35522 3 12.7778 3H36C39.4225 3 41.1339 3 42.4411 3.66608C43.5909 4.25195 44.5259 5.18683 45.1117 6.33673C45.7778 7.64396 45.7778 9.35522 45.7778 12.7778V58L24.3889 42.7222L3 58V12.7778Z" stroke="#1D1D21" stroke-width="5" stroke-linejoin="round"/>
</svg>
