<?xml version="1.0" encoding="UTF-8"?>
<svg id="Layer_1" data-name="Layer 1" xmlns="http://www.w3.org/2000/svg" viewBox="0 0 50 47.59">
  <defs>
    <style>
      .cls-1 {
        fill: #0f0f0f;
        stroke-width: 0px;
      }
    </style>
  </defs>
  <path class="cls-1" d="M7.64,13.24c-2.19,1.57-3.97,3.24-5.33,4.72-3.08,3.34-3.08,8.32,0,11.66,4,4.33,11.56,10.36,22.69,10.36,3,0,5.74-.44,8.22-1.16l-3.85-3.85c-1.38.25-2.83.38-4.37.38-9.33,0-15.75-5.04-19.29-8.87-1.44-1.56-1.44-3.82,0-5.38,1.34-1.45,3.09-3.07,5.26-4.53l-3.32-3.32Z"/>
  <path class="cls-1" d="M16.98,22.58c-.06.39-.09.8-.09,1.21,0,4.47,3.62,8.09,8.09,8.09.41,0,.81-.03,1.21-.09l-9.21-9.21Z"/>
  <path class="cls-1" d="M33.02,24.82l-9.06-9.06c.34-.04.68-.07,1.03-.07,4.47,0,8.09,3.62,8.09,8.09,0,.35-.02.7-.07,1.03Z"/>
  <path class="cls-1" d="M39.14,30.94c2.12-1.44,3.84-3.04,5.16-4.46,1.44-1.56,1.44-3.82,0-5.38-3.54-3.83-9.96-8.87-19.29-8.87-1.48,0-2.89.13-4.22.36l-3.86-3.86c2.45-.7,5.14-1.12,8.08-1.12,11.13,0,18.69,6.03,22.69,10.36,3.08,3.34,3.08,8.32,0,11.66-1.34,1.45-3.09,3.1-5.23,4.64l-3.32-3.32Z"/>
  <path class="cls-1" d="M1.89,3.95c-.9-.9-.9-2.37,0-3.27.9-.9,2.37-.9,3.27,0l42.97,42.97c.9.9.9,2.37,0,3.27-.9.9-2.37.9-3.27,0L1.89,3.95Z"/>
</svg>