<svg width="87" height="70" viewBox="0 0 87 70" fill="none" xmlns="http://www.w3.org/2000/svg">
<path d="M26.4238 13.2768C28.1844 13.2768 29.8729 12.5774 31.1178 11.3325C32.3628 10.0875 33.0622 8.39904 33.0622 6.63842C33.0622 4.8778 32.3628 3.18929 31.1178 1.94435C29.8729 0.699403 28.1844 0 26.4238 0C24.6631 0 22.9746 0.699403 21.7297 1.94435C20.4847 3.18929 19.7853 4.8778 19.7853 6.63842C19.7853 8.39904 20.4847 10.0875 21.7297 11.3325C22.9746 12.5774 24.6631 13.2768 26.4238 13.2768ZM26.4238 16.1934C17.5975 16.1934 11.9395 21.0641 11.9395 23.4356V27.8638H40.9081V23.4356C40.9081 20.5677 35.5515 16.1934 26.4238 16.1934Z" fill="black"/>
<path d="M59.4296 13.2768C61.1902 13.2768 62.8787 12.5774 64.1237 11.3325C65.3686 10.0875 66.068 8.39904 66.068 6.63842C66.068 4.8778 65.3686 3.18929 64.1237 1.94435C62.8787 0.699403 61.1902 0 59.4296 0C57.669 0 55.9805 0.699403 54.7355 1.94435C53.4906 3.18929 52.7912 4.8778 52.7912 6.63842C52.7912 8.39904 53.4906 10.0875 54.7355 11.3325C55.9805 12.5774 57.669 13.2768 59.4296 13.2768ZM59.4296 16.1934C50.6034 16.1934 44.9453 21.0641 44.9453 23.4356V27.8638H73.9139V23.4356C73.9139 20.5677 68.5574 16.1934 59.4296 16.1934Z" fill="black"/>
<path d="M43.2773 55.4136C45.0379 55.4136 46.7264 54.7142 47.9713 53.4692C49.2163 52.2243 49.9157 50.5358 49.9157 48.7751C49.9157 47.0145 49.2163 45.326 47.9713 44.0811C46.7264 42.8361 45.0379 42.1367 43.2773 42.1367C41.5167 42.1367 39.8281 42.8361 38.5832 44.0811C37.3383 45.326 36.6389 47.0145 36.6389 48.7751C36.6389 50.5358 37.3383 52.2243 38.5832 53.4692C39.8281 54.7142 41.5167 55.4136 43.2773 55.4136ZM43.2773 58.3302C34.4511 58.3302 28.793 63.2008 28.793 65.5723V70.0006H57.7616V65.5723C57.7616 62.7044 52.405 58.3302 43.2773 58.3302Z" fill="black"/>
<path d="M72.0702 43.4741C73.8309 43.4741 75.5194 42.7747 76.7643 41.5298C78.0093 40.2848 78.7087 38.5963 78.7087 36.8357C78.7087 35.0751 78.0093 33.3866 76.7643 32.1416C75.5194 30.8967 73.8309 30.1973 72.0702 30.1973C70.3096 30.1973 68.6211 30.8967 67.3762 32.1416C66.1312 33.3866 65.4318 35.0751 65.4318 36.8357C65.4318 38.5963 66.1312 40.2848 67.3762 41.5298C68.6211 42.7747 70.3096 43.4741 72.0702 43.4741ZM72.0702 46.3907C63.244 46.3907 57.5859 51.2614 57.5859 53.6329V58.0611H86.5545V53.6329C86.5545 50.765 81.198 46.3907 72.0702 46.3907Z" fill="black"/>
<path d="M14.4843 43.4741C16.2449 43.4741 17.9334 42.7747 19.1784 41.5298C20.4233 40.2848 21.1227 38.5963 21.1227 36.8357C21.1227 35.0751 20.4233 33.3866 19.1784 32.1416C17.9334 30.8967 16.2449 30.1973 14.4843 30.1973C12.7237 30.1973 11.0352 30.8967 9.79023 32.1416C8.54529 33.3866 7.84588 35.0751 7.84588 36.8357C7.84588 38.5963 8.54529 40.2848 9.79023 41.5298C11.0352 42.7747 12.7237 43.4741 14.4843 43.4741ZM14.4843 46.3907C5.6581 46.3907 0 51.2614 0 53.6329V58.0611H28.9686V53.6329C28.9686 50.765 23.612 46.3907 14.4843 46.3907Z" fill="black"/>
</svg>
