<svg width="40" height="40" viewBox="0 0 40 40" fill="none" xmlns="http://www.w3.org/2000/svg">
<path d="M13.4866 8C10.1528 8 7.44043 10.714 7.44043 14.0498C7.44043 14.5132 7.8159 14.8889 8.27894 14.8889C8.74206 14.8889 9.11745 14.5132 9.11745 14.0498C9.11745 11.6392 11.0774 9.67804 13.4866 9.67804C13.9498 9.67804 14.3252 9.30241 14.3252 8.83898C14.3252 8.37562 13.9498 8 13.4866 8Z" fill="white"/>
<path d="M28.2543 23.5554C29.77 21.1776 30.6484 18.3565 30.6484 15.3333C30.6484 6.87777 23.7747 0 15.3242 0C12.3027 0 9.48322 0.878901 7.10691 2.39553C5.21356 3.60334 3.60232 5.21551 2.39522 7.10995C0.879448 9.48775 0 12.3099 0 15.3333C0 23.7877 6.8748 30.6664 15.3242 30.6664C18.3457 30.6664 21.1663 29.7864 23.5427 28.2698C25.4359 27.062 27.0472 25.4498 28.2543 23.5554ZM20.2935 25.0187C18.8032 25.7876 17.1132 26.2221 15.3242 26.2221C9.32447 26.2221 4.44177 21.3366 4.44177 15.3333C4.44177 13.5433 4.87598 11.8522 5.64442 10.3611C6.68488 8.34112 8.33838 6.68777 10.3571 5.64778C11.8473 4.87888 13.5363 4.44442 15.3241 4.44442C21.325 4.44442 26.2066 9.32885 26.2066 15.3333C26.2066 17.1222 25.7723 18.8121 25.0039 20.3032C23.9646 22.3232 22.3122 23.9777 20.2935 25.0187Z" fill="white"/>
<path d="M39.0243 34.3085L30.1774 25.4785C28.9181 27.3185 27.3047 28.9318 25.4658 30.1929L34.3127 39.0229C34.9634 39.674 35.8163 39.9995 36.668 39.9995C37.5208 39.9995 38.3737 39.674 39.0244 39.0229C40.3247 37.7206 40.3247 35.6106 39.0243 34.3085Z" fill="white"/>
</svg>
