<?xml version="1.0" encoding="UTF-8"?>
<svg id="Layer_1" data-name="Layer 1" xmlns="http://www.w3.org/2000/svg" viewBox="0 0 60 45.98">
  <defs>
    <style>
      .cls-1 {
        fill: #fefefe;
        fill-rule: evenodd;
        stroke-width: 0px;
      }
    </style>
  </defs>
  <path class="cls-1" d="M58.6,13.75h-11.1c-1.45,0-2.67.74-2.87,2.29-.26,1.96,1.88,3.98,3.01,5.47l3.19,4.2c1.83,2.4,3.24,5.51,3.24,8.55,0,7.49-6.22,11.72-13.27,11.72h-18.55c-5.52,0-10.05-2.04-14.26-5.5-3.35-2.75-5.72-6.02-7.54-9.95-1.55-3.35,1.15-3.13,3.25-3.13h5.43s7.87-1.68,14.18-3.53c5.23-1.53,8.84-.68,10.68-.31,3.37.67.48-4.13-.03-5.93-.49-1.73-.98-4.1-.97-6.29.03-5.94,3.89-11.35,10.25-11.35,5.75,0,8.29,4.24,9.45,7.7l6.44,3.25c1.52.77.84,2.79-.53,2.79h0ZM13.35,35.12c-.51-.52-.5-1.35.01-1.86s1.35-.5,1.86.01c.1.1.2.2.3.3,2.88,2.78,6.54,4.13,10.07,4.2,3.5.07,6.85-1.11,9.18-3.4.07-.07.14-.14.21-.21.5-.52,1.33-.54,1.86-.04.52.5.54,1.33.04,1.86-.08.08-.17.17-.26.26-2.84,2.79-6.89,4.23-11.07,4.14-4.15-.08-8.45-1.67-11.83-4.93-.12-.11-.24-.23-.36-.35h0ZM44.88,5.45c.86,0,1.55.7,1.55,1.55s-.7,1.55-1.55,1.55-1.55-.7-1.55-1.55.7-1.55,1.55-1.55Z"/>
</svg>