<svg width="33" height="50" viewBox="0 0 33 50" fill="none" xmlns="http://www.w3.org/2000/svg">
<path d="M16.6574 0C11.0168 0 6.44358 4.59654 6.44358 10.2679C6.44358 15.9393 11.0171 20.5375 16.6574 20.5375C22.298 20.5375 26.8695 15.9396 26.8695 10.2679C26.8694 4.59642 22.298 0 16.6574 0ZM10.8085 11.9751H22.4487C22.4487 15.1895 19.842 17.7961 16.6277 17.7961C13.4134 17.7961 10.8085 15.1895 10.8085 11.9751ZM8.63037 22.1558C3.31117 22.265 -0.187833 25.7204 0.0104586 31.9772L0 50H6.12271V33.8065C6.17567 32.3888 8.25775 31.8921 8.52575 33.8065V50H24.6146V33.8065C24.6676 32.3888 26.7497 31.8921 27.0177 33.8065V50H32.9207V31.9772C32.8849 27.0305 30.8552 22.1099 24.3548 22.1558H8.63037Z" fill="#1D1D21"/>
</svg>
