<svg width="40" height="40" viewBox="0 0 40 40" fill="none" xmlns="http://www.w3.org/2000/svg">
<path fill-rule="evenodd" clip-rule="evenodd" d="M20 32.5C18.54 32.5 17.13 32.33 15.775 32.0412L9.89 35.5788L9.96876 29.78C5.45751 27.0675 2.5 22.5825 2.5 17.5C2.5 9.21625 10.335 2.5 20 2.5C29.665 2.5 37.5 9.21625 37.5 17.5C37.5 25.785 29.665 32.5 20 32.5ZM20 0C8.955 0 0 7.83625 0 17.5C0 23.0238 2.93125 27.9425 7.5 31.1488V40L16.2613 34.6838C17.4738 34.8838 18.7213 35 20 35C31.045 35 40 27.165 40 17.5C40 7.83625 31.045 0 20 0ZM28.75 13.75H11.25C10.56 13.75 10 14.31 10 15C10 15.6912 10.56 16.25 11.25 16.25H28.75C29.44 16.25 30 15.6912 30 15C30 14.31 29.44 13.75 28.75 13.75ZM26.25 21.25H13.75C13.06 21.25 12.5 21.8088 12.5 22.5C12.5 23.1912 13.06 23.75 13.75 23.75H26.25C26.94 23.75 27.5 23.1912 27.5 22.5C27.5 21.8088 26.94 21.25 26.25 21.25Z" fill="white"/>
</svg>
