<svg width="54" height="46" viewBox="0 0 54 46" fill="none" xmlns="http://www.w3.org/2000/svg">
<rect width="54" height="46" rx="10" fill="white"/>
<g clip-path="url(#clip0_0_1)">
<path d="M44.6663 15.6673H27.708C27.0197 13.7282 25.1722 12.334 22.9997 12.334C20.8272 12.334 18.9797 13.7282 18.2913 15.6673H11.333V19.0007H18.2913C18.9797 20.9398 20.8272 22.334 22.9997 22.334C25.1722 22.334 27.0197 20.9398 27.708 19.0007H44.6663V15.6673Z" fill="#1D1D21"/>
<path d="M44.6663 29.0013H37.708C37.0197 27.0621 35.1722 25.668 32.9997 25.668C30.8272 25.668 28.9797 27.0621 28.2913 29.0013H11.333V32.3346H28.2913C28.9797 34.2738 30.8272 35.668 32.9997 35.668C35.1722 35.668 37.0197 34.2738 37.708 32.3346H44.6663V29.0013Z" fill="#1D1D21"/>
</g>
<defs>
<clipPath id="clip0_0_1">
<rect width="40" height="40" fill="white" transform="translate(8 4)"/>
</clipPath>
</defs>
</svg>
