<svg width="43" height="40" viewBox="0 0 43 40" fill="none" xmlns="http://www.w3.org/2000/svg">
<path d="M38.8071 11.5913C38.722 11.8466 38.6355 12.1033 38.5489 12.3616C39.5378 17.1972 39.1725 22.451 36.6769 28.1875C37.0392 24.5035 36.9791 20.9795 36.4098 17.6022C35.7379 18.9094 34.8811 20.177 34.0037 21.4519C34.1284 25.1153 33.4448 28.9812 31.6519 33.1068C31.9395 30.177 31.8867 27.3527 31.5991 24.6062C30.4239 25.9428 29.1123 27.2265 27.6423 28.4017C27.2945 30.7257 26.6387 33.1303 25.5575 35.62C25.7511 33.6423 25.7834 31.6881 25.7174 29.7926C22.4589 32.0079 18.59 33.7802 13.9026 34.7647C17.8506 32.5493 21.0005 30.2635 23.5798 27.9205C21.8838 27.5669 20.1379 27.3351 18.3934 27.1723C20.6998 26.5898 22.9768 26.3624 25.1833 26.424C26.7605 24.8116 28.078 23.189 29.1402 21.5047C26.1986 20.9751 23.2218 20.8225 20.2112 21.0235C23.6663 19.351 27.1097 18.7671 30.5296 18.9915C31.4128 17.1723 32.0172 15.29 32.4544 13.3783C29.8532 13.1318 27.0202 13.7495 23.7925 14.5549C26.7062 11.8847 29.8562 10.7257 32.9885 10.3853C33.1513 9.06051 33.2364 7.73275 33.2526 6.36392C18.8042 -3.91628 22.632 30.6596 0 36.2142C18.6223 47.7503 54.6815 31.0206 38.8071 11.5913ZM35.4415 0.311994C36.3629 -0.135482 37.4808 -0.16189 38.3288 0.633296C38.813 5.18581 37.3312 14.8102 31.4847 21.5385C35.9433 13.4135 36.269 7.53029 35.4415 0.313461V0.311994Z" fill="#1D1D21"/>
</svg>
