<svg width="63" height="48" viewBox="0 0 63 48" fill="none" xmlns="http://www.w3.org/2000/svg">
<rect width="63" height="48" rx="10" fill="white"/>
<path d="M33.5294 9.85156H24.8824C21.4232 9.85156 19.6936 9.85156 18.3724 10.4571C17.2102 10.9898 16.2654 11.8397 15.6732 12.8851C15 14.0735 15 15.6293 15 18.7409V30.5933C15 33.7049 15 35.2606 15.6732 36.4491C16.2654 37.4945 17.2102 38.3444 18.3724 38.877C19.6936 39.4826 21.4232 39.4826 24.8824 39.4826H38.0588C41.5181 39.4826 43.2475 39.4826 44.5688 38.877C45.731 38.3444 46.6758 37.4945 47.2679 36.4491C47.9412 35.2606 47.9412 33.7049 47.9412 30.5933V22.8151" stroke="black" stroke-width="3" stroke-linecap="round" stroke-linejoin="round"/>
<path d="M15 32.0746L23.8383 24.1244C24.6423 23.4012 25.9459 23.4012 26.7499 24.1244L33.5294 30.2227M33.5294 30.2227L39.2795 25.0504C40.0835 24.3272 41.3871 24.3272 42.1911 25.0504L47.9412 30.2227M33.5294 30.2227L38.1618 34.3895" stroke="black" stroke-width="3" stroke-linecap="round" stroke-linejoin="round"/>
<path d="M43.8237 17.2597V8M43.8237 8L39.7061 11.7039M43.8237 8L47.9413 11.7039" stroke="black" stroke-width="3" stroke-linecap="round" stroke-linejoin="round"/>
</svg>
