<svg width="70" height="60" viewBox="0 0 70 60" fill="none" xmlns="http://www.w3.org/2000/svg">
<path d="M33.0519 9.45615L34.8531 11.3276L36.6544 9.45614C43.8561 1.97369 51.4547 1.27675 57.1216 3.86708C62.946 6.52945 67.2063 12.8576 67.2063 20.3967C67.2063 28.0909 64.0562 34.0199 59.5507 39.0933C55.84 43.2717 51.3468 46.7356 46.9746 50.1063C45.9372 50.9061 44.9066 51.7006 43.8948 52.4982C42.0625 53.9427 40.4209 55.2162 38.8365 56.142C37.2514 57.0683 35.9612 57.5 34.8531 57.5C33.7451 57.5 32.4549 57.0683 30.8698 56.142C29.2855 55.2162 27.6439 53.9427 25.8115 52.4982C24.7998 51.7006 23.7692 50.906 22.7317 50.1063C18.3595 46.7356 13.8664 43.2717 10.1556 39.0933C5.65011 34.0199 2.5 28.0909 2.5 20.3967C2.5 12.8576 6.76021 6.52945 12.5846 3.86708C18.2515 1.27676 25.8501 1.97369 33.0519 9.45615Z" fill="white" stroke="#1D1D21" stroke-width="5"/>
<path d="M29.855 19H40.715V22.06H32.405L31.325 27.4L31.385 27.46C31.845 26.94 32.425 26.55 33.125 26.29C33.845 26.01 34.555 25.87 35.255 25.87C36.295 25.87 37.225 26.05 38.045 26.41C38.865 26.75 39.555 27.24 40.115 27.88C40.675 28.5 41.095 29.24 41.375 30.1C41.675 30.96 41.825 31.89 41.825 32.89C41.825 33.73 41.685 34.6 41.405 35.5C41.145 36.38 40.715 37.19 40.115 37.93C39.535 38.65 38.785 39.25 37.865 39.73C36.945 40.19 35.845 40.42 34.565 40.42C33.545 40.42 32.595 40.28 31.715 40C30.855 39.74 30.095 39.34 29.435 38.8C28.775 38.26 28.245 37.6 27.845 36.82C27.465 36.02 27.255 35.09 27.215 34.03H30.635C30.735 35.17 31.125 36.05 31.805 36.67C32.485 37.27 33.385 37.57 34.505 37.57C35.225 37.57 35.835 37.45 36.335 37.21C36.835 36.97 37.235 36.64 37.535 36.22C37.855 35.8 38.075 35.31 38.195 34.75C38.335 34.19 38.405 33.59 38.405 32.95C38.405 32.37 38.325 31.82 38.165 31.3C38.005 30.76 37.765 30.29 37.445 29.89C37.125 29.49 36.705 29.17 36.185 28.93C35.685 28.69 35.095 28.57 34.415 28.57C33.695 28.57 33.015 28.71 32.375 28.99C31.755 29.25 31.305 29.75 31.025 30.49H27.605L29.855 19Z" fill="#1D1D21"/>
</svg>
