<svg width="40" height="40" viewBox="0 0 40 40" fill="none" xmlns="http://www.w3.org/2000/svg">
<path d="M26.6671 19.9987C29.4286 19.9987 31.6671 22.2372 31.6671 24.9987V34.9987C31.6671 35.9192 30.9209 36.6654 30.0004 36.6654C29.0799 36.6654 28.3337 35.9192 28.3337 34.9987V24.9987C28.3337 24.0782 27.5876 23.332 26.6671 23.332H13.3338C12.4133 23.332 11.6671 24.0782 11.6671 24.9987V34.9987C11.6671 35.9192 10.9209 36.6654 10.0004 36.6654C9.07996 36.6654 8.33377 35.9192 8.33377 34.9987V24.9987C8.33377 22.2372 10.5723 19.9987 13.3338 19.9987H26.6671ZM23.3338 26.6654C24.2542 26.6654 25.0004 27.4115 25.0004 28.332C25.0004 29.1868 24.357 29.8912 23.5281 29.9875L23.3338 29.9987H16.6671C15.7466 29.9987 15.0004 29.2525 15.0004 28.332C15.0004 27.4773 15.6438 26.7729 16.4727 26.6766L16.6671 26.6654H23.3338ZM20.0004 13.332C21.7684 13.332 23.4124 13.8845 24.7627 14.8262C25.5177 15.3527 25.7029 16.3916 25.1764 17.1465C24.6499 17.9017 23.6111 18.0869 22.8561 17.5604C22.0469 16.996 21.0647 16.6654 20.0004 16.6654C18.9362 16.6654 17.9542 16.996 17.1451 17.56C16.39 18.0865 15.3512 17.9012 14.8247 17.1462C14.2982 16.3912 14.4835 15.3523 15.2386 14.8258C16.5888 13.8843 18.2326 13.332 20.0004 13.332ZM20.0002 8.33203C23.1974 8.33203 26.1356 9.45938 28.4327 11.3367C29.1454 11.9191 29.2511 12.9691 28.6686 13.6819C28.0861 14.3946 27.0361 14.5002 26.3232 13.9177C24.5997 12.5091 22.4007 11.6654 20.0002 11.6654C17.6011 11.6654 15.4032 12.5082 13.68 13.9154C12.9671 14.4977 11.9171 14.3917 11.3349 13.6788C10.7526 12.9659 10.8586 11.9159 11.5715 11.3337C13.8681 9.45818 16.8049 8.33203 20.0002 8.33203ZM20.0006 3.33203C24.5952 3.33203 28.7987 5.02438 32.0154 7.81748C32.7104 8.42098 32.7846 9.47365 32.1811 10.1687C31.5776 10.8637 30.5249 10.9379 29.8299 10.3344C27.1964 8.04773 23.7621 6.66536 20.0006 6.66536C16.2361 6.66536 12.7992 8.04991 10.1649 10.3398C9.47021 10.9437 8.41751 10.8701 7.81362 10.1754C7.20974 9.4807 7.28336 8.428 7.97806 7.82411C11.1957 5.02706 15.4023 3.33203 20.0006 3.33203Z" fill="#1D1D21"/>
</svg>
