<svg width="70" height="60" viewBox="0 0 70 60" fill="none" xmlns="http://www.w3.org/2000/svg">
<path d="M33.0519 9.45615L34.8531 11.3276L36.6544 9.45614C43.8561 1.97369 51.4547 1.27675 57.1216 3.86708C62.946 6.52945 67.2063 12.8576 67.2063 20.3967C67.2063 28.0909 64.0562 34.0199 59.5507 39.0933C55.84 43.2717 51.3468 46.7356 46.9746 50.1063C45.9372 50.9061 44.9066 51.7006 43.8948 52.4982C42.0625 53.9427 40.4209 55.2162 38.8365 56.142C37.2514 57.0683 35.9612 57.5 34.8531 57.5C33.7451 57.5 32.4549 57.0683 30.8698 56.142C29.2855 55.2162 27.6439 53.9427 25.8115 52.4982C24.7998 51.7006 23.7692 50.906 22.7317 50.1063C18.3595 46.7356 13.8664 43.2717 10.1556 39.0933C5.65011 34.0199 2.5 28.0909 2.5 20.3967C2.5 12.8576 6.76021 6.52945 12.5846 3.86708C18.2515 1.27676 25.8501 1.97369 33.0519 9.45615Z" fill="white" stroke="#1D1D21" stroke-width="5"/>
<path d="M33.005 27.7C33.565 27.72 34.125 27.68 34.685 27.58C35.245 27.48 35.745 27.31 36.185 27.07C36.625 26.81 36.975 26.46 37.235 26.02C37.515 25.58 37.655 25.04 37.655 24.4C37.655 23.5 37.345 22.78 36.725 22.24C36.125 21.7 35.345 21.43 34.385 21.43C33.785 21.43 33.265 21.55 32.825 21.79C32.385 22.03 32.015 22.36 31.715 22.78C31.435 23.18 31.225 23.64 31.085 24.16C30.945 24.66 30.885 25.18 30.905 25.72H27.485C27.525 24.7 27.715 23.76 28.055 22.9C28.395 22.02 28.855 21.26 29.435 20.62C30.035 19.98 30.755 19.48 31.595 19.12C32.435 18.76 33.385 18.58 34.445 18.58C35.265 18.58 36.065 18.7 36.845 18.94C37.645 19.18 38.355 19.53 38.975 19.99C39.615 20.45 40.125 21.04 40.505 21.76C40.885 22.46 41.075 23.27 41.075 24.19C41.075 25.25 40.835 26.18 40.355 26.98C39.875 27.76 39.125 28.33 38.105 28.69V28.75C39.305 28.99 40.235 29.59 40.895 30.55C41.575 31.49 41.915 32.64 41.915 34C41.915 35 41.715 35.9 41.315 36.7C40.915 37.48 40.375 38.15 39.695 38.71C39.015 39.25 38.225 39.67 37.325 39.97C36.425 40.27 35.475 40.42 34.475 40.42C33.255 40.42 32.185 40.25 31.265 39.91C30.365 39.55 29.605 39.05 28.985 38.41C28.385 37.77 27.925 37 27.605 36.1C27.285 35.2 27.115 34.2 27.095 33.1H30.515C30.475 34.38 30.785 35.45 31.445 36.31C32.125 37.15 33.135 37.57 34.475 37.57C35.615 37.57 36.565 37.25 37.325 36.61C38.105 35.95 38.495 35.02 38.495 33.82C38.495 33 38.335 32.35 38.015 31.87C37.695 31.39 37.275 31.03 36.755 30.79C36.235 30.53 35.645 30.37 34.985 30.31C34.345 30.25 33.685 30.23 33.005 30.25V27.7Z" fill="#1D1D21"/>
</svg>
