<svg width="40" height="40" viewBox="0 0 40 40" fill="none" xmlns="http://www.w3.org/2000/svg">
<path fill-rule="evenodd" clip-rule="evenodd" d="M27.5473 9.99935C27.5161 9.86485 27.4838 9.73005 27.45 9.59512C27.01 7.83498 26.3171 5.9224 25.1873 4.41602C24.0223 2.86272 22.3213 1.66602 19.9998 1.66602C17.6783 1.66602 15.9772 2.86272 14.8123 4.41602C13.6825 5.9224 12.9896 7.83498 12.5495 9.59513C12.5158 9.73005 12.4834 9.86485 12.4522 9.99935H9.78495C7.15263 9.99935 4.97113 12.0403 4.79603 14.6667L3.5738 33C3.38142 35.886 5.67042 38.3327 8.56273 38.3327H31.4368C34.3291 38.3327 36.6181 35.886 36.4258 33L35.2035 14.6667C35.0285 12.0403 32.847 9.99935 30.2146 9.99935H27.5473ZM13.3331 18.3327C14.2881 18.3327 14.9965 17.6133 14.9998 16.663C15 16.6233 15.0005 16.5837 15.0012 16.544C15.0026 16.4562 15.0056 16.3236 15.0117 16.1526C15.024 15.8102 15.0486 15.316 15.0982 14.7211C15.1334 14.2989 15.1807 13.8304 15.2443 13.3327H24.7553C24.8188 13.8304 24.8661 14.2989 24.9015 14.7211C24.951 15.316 24.9756 15.8102 24.9878 16.1526C24.9939 16.3236 24.997 16.4562 24.9985 16.544C24.9991 16.5849 24.9996 16.6258 24.9998 16.6667C24.9998 16.6667 24.9998 18.3327 26.6665 18.3327C28.3331 18.3327 28.3331 16.6638 28.3331 16.6638C28.333 16.6053 28.3323 16.5469 28.3313 16.4885C28.3294 16.381 28.326 16.2272 28.319 16.0336C28.3053 15.6468 28.2778 15.0994 28.2231 14.4443C28.1948 14.1027 28.1586 13.7295 28.113 13.3327H30.2146C31.0921 13.3327 31.8193 14.013 31.8776 14.8885L33.0998 33.2219C33.164 34.1839 32.401 34.9994 31.4368 34.9994H8.56273C7.59863 34.9994 6.83563 34.1839 6.89975 33.2219L8.12198 14.8885C8.18035 14.013 8.90752 13.3327 9.78495 13.3327H11.8866C11.8409 13.7295 11.8048 14.1027 11.7764 14.4443C11.7218 15.0994 11.6943 15.6468 11.6805 16.0336C11.6736 16.2272 11.6701 16.381 11.6683 16.4885C11.6673 16.5458 11.6666 16.603 11.6664 16.6603C11.6652 17.6113 12.3803 18.3327 13.3331 18.3327ZM15.889 9.99935H24.1106C23.7253 8.58805 23.2014 7.32378 22.5206 6.41602C21.8106 5.46932 21.0116 4.99935 19.9998 4.99935C18.9879 4.99935 18.189 5.46932 17.479 6.41602C16.7981 7.32378 16.2743 8.58805 15.889 9.99935Z" fill="black"/>
</svg>
