<svg width="36" height="51" viewBox="0 0 36 51" fill="none" xmlns="http://www.w3.org/2000/svg">
<path d="M8 28L3.87652 33.1542C3.55165 33.5605 3.38922 33.7635 3.2737 33.9895C3.17122 34.1902 3.09633 34.4038 3.05105 34.6243C3 34.873 3 35.133 3 35.653V48L13 35.5M28 28L32.1235 33.1542C32.4483 33.5605 32.6107 33.7635 32.7262 33.9895C32.8287 34.1902 32.9038 34.4038 32.949 34.6243C33 34.873 33 35.133 33 35.653V48L23 35.5M18 28V45.5M8 15.5H28M18 3L9.01038 13.1134C8.6366 13.5338 8.44973 13.744 8.3165 13.983C8.19833 14.1949 8.11165 14.4229 8.05918 14.6598C8 14.9269 8 15.2082 8 15.7708V25.5C8 29.0002 8 30.7505 8.6812 32.0875C9.28043 33.2635 10.2365 34.2195 11.4125 34.8187C12.7495 35.5 14.4998 35.5 18 35.5C21.5002 35.5 23.2505 35.5 24.5875 34.8187C25.7635 34.2195 26.7195 33.2635 27.3187 32.0875C28 30.7505 28 29.0002 28 25.5V15.7708C28 15.2082 28 14.9269 27.9408 14.6598C27.8883 14.4229 27.8017 14.1949 27.6835 13.983C27.5502 13.744 27.3635 13.5338 26.9897 13.1134L18 3Z" stroke="#1D1D21" stroke-width="5" stroke-linecap="round" stroke-linejoin="round"/>
</svg>
