<?xml version="1.0" encoding="UTF-8"?>
<svg id="Layer_1" data-name="Layer 1" xmlns="http://www.w3.org/2000/svg" viewBox="0 0 60 57.11">
  <defs>
    <style>
      .cls-1 {
        fill: #0f0f0f;
        stroke-width: 0px;
      }
    </style>
  </defs>
  <path class="cls-1" d="M9.17,15.89c-2.63,1.88-4.77,3.89-6.4,5.66-3.7,4-3.7,9.99,0,13.99,4.79,5.19,13.88,12.43,27.23,12.43,3.6,0,6.88-.53,9.86-1.39l-4.61-4.61c-1.65.29-3.4.46-5.24.46-11.19,0-18.9-6.05-23.15-10.65-1.73-1.88-1.73-4.58,0-6.46,1.61-1.74,3.71-3.69,6.31-5.44l-3.99-3.99Z"/>
  <path class="cls-1" d="M20.38,27.1c-.07.47-.11.96-.11,1.45,0,5.36,4.35,9.71,9.71,9.71.49,0,.98-.04,1.45-.11l-11.05-11.05Z"/>
  <path class="cls-1" d="M39.62,29.78l-10.88-10.88c.41-.05.82-.08,1.24-.08,5.36,0,9.71,4.35,9.71,9.71,0,.42-.03.83-.08,1.24Z"/>
  <path class="cls-1" d="M46.96,37.13c2.54-1.73,4.61-3.64,6.19-5.35,1.73-1.88,1.73-4.58,0-6.46-4.25-4.6-11.96-10.65-23.15-10.65-1.78,0-3.47.15-5.07.43l-4.63-4.63c2.93-.84,6.17-1.35,9.7-1.35,13.35,0,22.43,7.24,27.23,12.43,3.7,4,3.7,9.99,0,13.99-1.61,1.74-3.7,3.72-6.28,5.57l-3.98-3.98Z"/>
  <path class="cls-1" d="M2.27,4.74c-1.08-1.08-1.08-2.84,0-3.92C3.35-.27,5.11-.27,6.19.81l51.56,51.56c1.08,1.08,1.08,2.84,0,3.92-1.08,1.08-2.84,1.08-3.92,0L2.27,4.74Z"/>
</svg>