<?xml version="1.0" encoding="UTF-8"?>
<svg id="Capa_1" data-name="Capa 1" xmlns="http://www.w3.org/2000/svg" viewBox="0 0 50 50.34">
  <defs>
    <style>
      .cls-1 {
        fill: #000;
        stroke-width: 0px;
      }
    </style>
  </defs>
  <path class="cls-1" d="M25,0C11.21,0,0,9.42,0,21c0,6.24,3.35,12.18,9.03,16.15-.18,3.09-2.69,7.08-3.67,8.38-.69.91-.81,2.13-.3,3.15.51,1.02,1.55,1.67,2.69,1.67,6.86,0,14.36-5.37,18-8.35,13.44-.33,24.25-9.62,24.25-20.99S38.79,0,25,0ZM25.01,36h0c-.82-.06-1.67.17-2.3.71-2.57,2.2-5.8,4.48-8.93,5.98.94-2.39,1.57-5.14,1.1-7.76-.15-.85-.66-1.59-1.4-2.04-4.75-2.88-7.48-7.22-7.48-11.89,0-8.27,8.52-15,19-15s19,6.73,19,15-8.52,15-18.99,15Z"/>
</svg>