<?xml version="1.0" encoding="UTF-8"?>
<svg id="Layer_1" data-name="Layer 1" xmlns="http://www.w3.org/2000/svg" viewBox="0 0 50 38.32">
  <defs>
    <style>
      .cls-1 {
        fill: #fefefe;
        fill-rule: evenodd;
        stroke-width: 0px;
      }
    </style>
  </defs>
  <path class="cls-1" d="M48.84,11.45h-9.25c-1.21,0-2.22.62-2.39,1.91-.22,1.63,1.57,3.32,2.51,4.56l2.66,3.5c1.52,2,2.7,4.59,2.7,7.13,0,6.24-5.18,9.76-11.06,9.76h-15.46c-4.6,0-8.37-1.7-11.88-4.58-2.79-2.29-4.77-5.02-6.28-8.29-1.29-2.79.96-2.61,2.71-2.61h4.52s6.56-1.4,11.82-2.94c4.36-1.28,7.36-.56,8.9-.26,2.81.56.4-3.44-.02-4.94-.41-1.44-.82-3.42-.81-5.24.03-4.95,3.24-9.45,8.54-9.45,4.79,0,6.91,3.54,7.87,6.41l5.37,2.71c1.27.64.7,2.33-.44,2.33h0ZM11.13,29.27c-.42-.43-.42-1.12.01-1.55s1.12-.42,1.55.01c.08.08.17.17.25.25,2.4,2.32,5.45,3.44,8.39,3.5,2.91.06,5.71-.93,7.65-2.83.06-.05.11-.11.17-.17.42-.44,1.11-.45,1.55-.03.44.42.45,1.11.03,1.55-.07.07-.14.14-.21.22-2.37,2.32-5.74,3.52-9.23,3.45-3.46-.07-7.04-1.39-9.86-4.11-.1-.09-.2-.19-.3-.29h0ZM37.4,4.54c.71,0,1.29.58,1.29,1.29s-.58,1.29-1.29,1.29-1.29-.58-1.29-1.29.58-1.29,1.29-1.29Z"/>
</svg>