<svg width="52" height="50" viewBox="0 0 52 50" fill="none" xmlns="http://www.w3.org/2000/svg">
<path d="M25.9912 23.8245C29.1505 23.8245 32.1805 22.5695 34.4144 20.3355C36.6484 18.1015 37.9035 15.0716 37.9035 11.9122C37.9035 8.75292 36.6484 5.72299 34.4144 3.48902C32.1805 1.25504 29.1505 0 25.9912 0C22.8319 0 19.802 1.25504 17.568 3.48902C15.334 5.72299 14.079 8.75292 14.079 11.9122C14.079 15.0716 15.334 18.1015 17.568 20.3355C19.802 22.5695 22.8319 23.8245 25.9912 23.8245ZM25.9912 29.0582C10.1531 29.0582 0 37.7983 0 42.0538V50H51.9824V42.0538C51.9824 36.9075 42.3704 29.0582 25.9912 29.0582Z" fill="black"/>
</svg>
