<svg width="31" height="35" viewBox="0 0 31 35" fill="none" xmlns="http://www.w3.org/2000/svg">
<path d="M28.4375 24.0625C27.4356 24.0625 26.25 22.8769 26.25 21.875V10.9375C26.25 4.90711 21.3429 0 15.3125 0C9.28211 0 4.375 4.90711 4.375 10.9375V21.875C4.375 22.8555 3.16805 24.0625 2.1875 24.0625C0.978359 24.0625 0 25.0409 0 26.25C0 27.4591 0.978359 28.4375 2.1875 28.4375H28.4375C29.6466 28.4375 30.625 27.4591 30.625 26.25C30.625 25.0409 29.6466 24.0625 28.4375 24.0625Z" fill="#231F20"/>
<path d="M15.3125 35C17.7286 35 19.6875 33.0411 19.6875 30.625H10.9375C10.9375 33.0411 12.8964 35 15.3125 35Z" fill="#231F20"/>
</svg>
