<svg width="46" height="61" viewBox="0 0 46 61" fill="none" xmlns="http://www.w3.org/2000/svg">
<path d="M26.6355 51.6989H20.2075L21.396 34.1562H25.447L26.6355 51.6989Z" fill="#1D1D21"/>
<path d="M27.0456 31.5203C27.0456 33.5221 25.4229 36.4887 23.4204 36.4887C21.4178 36.4887 19.7959 33.5221 19.7959 31.5203C19.7959 29.5186 21.4186 29.2383 23.4204 29.2383C25.4221 29.2383 27.0456 29.5178 27.0456 31.5203Z" fill="#1D1D21"/>
<path opacity="0.15" d="M34.2586 21.8958C34.2586 29.2825 29.4058 36.752 23.4204 36.752C17.435 36.752 12.583 29.2818 12.583 21.8958C12.583 14.5098 17.435 10.0039 23.4204 10.0039C29.4058 10.0039 34.2586 14.5098 34.2586 21.8958Z" stroke="#1D1D21" stroke-width="2.29735" stroke-miterlimit="10"/>
<path opacity="0.15" d="M31.7216 32.1719C39.427 34.4692 44.8395 39.4522 44.8395 42.3767V59.0371C44.8395 59.214 44.7693 59.3837 44.6442 59.5088C44.5191 59.6339 44.3494 59.7041 44.1725 59.7041H2.667C2.4901 59.7041 2.32045 59.6339 2.19536 59.5088C2.07027 59.3837 2 59.214 2 59.0371V42.3767C2 39.456 7.39036 34.4846 15.0758 32.1811" stroke="#1D1D21" stroke-width="2.29735" stroke-miterlimit="10" stroke-linecap="round"/>
<path d="M34.2586 13.8926C34.2586 21.2786 29.4058 28.7489 23.4204 28.7489C17.435 28.7489 12.583 21.2786 12.583 13.8926C12.583 6.50664 17.435 2 23.4204 2C29.4058 2 34.2586 6.50588 34.2586 13.8926Z" stroke="#1D1D21" stroke-width="2.29735" stroke-miterlimit="10"/>
<path d="M31.7216 24.168C39.427 26.4653 44.8395 31.4483 44.8395 34.3728V51.0332C44.8393 51.21 44.769 51.3794 44.6439 51.5044C44.5188 51.6293 44.3493 51.6995 44.1725 51.6995H2.667C2.49023 51.6995 2.32069 51.6293 2.19563 51.5044C2.07056 51.3794 2.0002 51.21 2 51.0332V34.3728C2 31.4521 7.39036 26.4799 15.0758 24.1764" stroke="#1D1D21" stroke-width="2.29735" stroke-miterlimit="10" stroke-linecap="round"/>
</svg>
