<svg width="35" height="40" viewBox="0 0 35 40" fill="none" xmlns="http://www.w3.org/2000/svg">
<path d="M17.1429 40C26.6095 40 34.2857 32.3238 34.2857 22.8571C24.819 22.8571 17.1429 30.5333 17.1429 40ZM4.95238 17.619C4.95238 20.2476 7.08571 22.381 9.71429 22.381C10.7238 22.381 11.6381 22.0762 12.419 21.5429L12.381 21.9048C12.381 24.5333 14.5143 26.6667 17.1429 26.6667C19.7714 26.6667 21.9048 24.5333 21.9048 21.9048L21.8667 21.5429C22.6286 22.0762 23.5619 22.381 24.5714 22.381C27.2 22.381 29.3333 20.2476 29.3333 17.619C29.3333 15.7143 28.2095 14.0952 26.6095 13.3333C28.2095 12.5714 29.3333 10.9524 29.3333 9.04762C29.3333 6.41905 27.2 4.28571 24.5714 4.28571C23.5619 4.28571 22.6476 4.59048 21.8667 5.12381L21.9048 4.7619C21.9048 2.13333 19.7714 0 17.1429 0C14.5143 0 12.381 2.13333 12.381 4.7619L12.419 5.12381C11.6571 4.59048 10.7238 4.28571 9.71429 4.28571C7.08571 4.28571 4.95238 6.41905 4.95238 9.04762C4.95238 10.9524 6.07619 12.5714 7.67619 13.3333C6.07619 14.0952 4.95238 15.7143 4.95238 17.619ZM17.1429 8.57143C19.7714 8.57143 21.9048 10.7048 21.9048 13.3333C21.9048 15.9619 19.7714 18.0952 17.1429 18.0952C14.5143 18.0952 12.381 15.9619 12.381 13.3333C12.381 10.7048 14.5143 8.57143 17.1429 8.57143ZM0 22.8571C0 32.3238 7.67619 40 17.1429 40C17.1429 30.5333 9.46667 22.8571 0 22.8571Z" fill="#1D1D21"/>
</svg>
