<svg width="105" height="70" viewBox="0 0 105 70" fill="none" xmlns="http://www.w3.org/2000/svg">
<path d="M93.7834 31H84.2234C84.2367 29.84 84.5167 28.8267 85.0634 27.96C85.61 27.0933 86.3567 26.34 87.3034 25.7C87.7567 25.3667 88.23 25.0467 88.7234 24.74C89.2167 24.42 89.67 24.08 90.0834 23.72C90.4967 23.36 90.8367 22.9733 91.1034 22.56C91.37 22.1333 91.51 21.6467 91.5234 21.1C91.5234 20.8467 91.49 20.58 91.4234 20.3C91.37 20.0067 91.2567 19.74 91.0834 19.5C90.91 19.2467 90.67 19.04 90.3634 18.88C90.0567 18.7067 89.6567 18.62 89.1634 18.62C88.71 18.62 88.33 18.7133 88.0234 18.9C87.73 19.0733 87.49 19.32 87.3034 19.64C87.13 19.9467 86.9967 20.3133 86.9034 20.74C86.8234 21.1667 86.7767 21.6267 86.7634 22.12H84.4834C84.4834 21.3467 84.5834 20.6333 84.7834 19.98C84.9967 19.3133 85.31 18.74 85.7234 18.26C86.1367 17.78 86.6367 17.4067 87.2234 17.14C87.8234 16.86 88.5167 16.72 89.3034 16.72C90.1567 16.72 90.87 16.86 91.4434 17.14C92.0167 17.42 92.4767 17.7733 92.8234 18.2C93.1834 18.6267 93.4367 19.0933 93.5834 19.6C93.73 20.0933 93.8034 20.5667 93.8034 21.02C93.8034 21.58 93.7167 22.0867 93.5434 22.54C93.37 22.9933 93.1367 23.4133 92.8434 23.8C92.55 24.1733 92.2167 24.52 91.8434 24.84C91.47 25.16 91.0834 25.46 90.6834 25.74C90.2834 26.02 89.8834 26.2867 89.4834 26.54C89.0834 26.7933 88.71 27.0467 88.3634 27.3C88.03 27.5533 87.7367 27.82 87.4834 28.1C87.23 28.3667 87.0567 28.6533 86.9634 28.96H93.7834V31Z" fill="#1D1D21"/>
<path d="M62.9407 4.42773H35.4178C34.431 4.42773 33.6309 5.22789 33.6309 6.21471V18.5404L36.8539 13.7628C36.9613 13.6037 37.079 13.4537 37.2048 13.3122V8.00168H61.1537V41.565H37.2048V30.1186C36.9049 30.432 36.5611 30.7133 36.1757 30.9528L35.28 31.5088L33.982 33.4329C33.8744 33.5923 33.7566 33.7423 33.6309 33.8839V43.352C33.6309 44.3388 34.431 45.1389 35.4178 45.1389H62.9407C63.9275 45.1389 64.7277 44.3388 64.7277 43.352V6.21471C64.7277 5.22766 63.9275 4.42773 62.9407 4.42773Z" fill="black"/>
<path d="M102.81 4.66602H75.287C74.3002 4.66602 73.5 5.46617 73.5 6.45299V18.7787L76.723 14.0011C76.8304 13.8419 76.9482 13.692 77.0739 13.5505V8.23996H101.023V41.8033H77.0739V30.3569C76.774 30.6703 76.4302 30.9516 76.0448 31.1911L75.1491 31.7471L73.8512 33.6712C73.7435 33.8306 73.6258 33.9805 73.5 34.1222V43.5902C73.5 44.5771 74.3002 45.3772 75.287 45.3772H102.81C103.797 45.3772 104.597 44.5771 104.597 43.5902V6.45299C104.597 5.46595 103.797 4.66602 102.81 4.66602Z" fill="black"/>
<path d="M13.382 14.7211C15.7343 14.7211 17.7384 13.2295 18.5001 11.1406H8.26367C9.02555 13.2295 11.0294 14.7211 13.382 14.7211Z" fill="black"/>
<path d="M41.6134 14.8387C40.7893 14.1124 39.5404 14.2941 38.9451 15.1758C37.5968 17.1745 34.4561 21.8297 33.0703 23.8844C32.7074 23.9305 32.3484 24.0509 32.0174 24.2563L26.6952 27.5608C26.6865 25.8276 26.6795 24.4551 26.6706 22.6475C26.6533 19.2029 23.8207 16.3842 20.3761 16.3842H19.9835C19.3801 17.6608 15.6996 25.4453 15.1374 26.6346V19.3346L16.1996 17.4446C16.4662 16.9701 16.1233 16.3842 15.5792 16.3842H11.1991C10.6583 16.3842 10.315 16.9636 10.5748 17.4379L11.5634 19.2426V26.6346C8.27038 19.6685 10.0887 23.3635 6.78937 16.3842H6.31577C2.90364 16.3842 0.113957 19.2352 0.0969466 22.6471L3.26922e-05 41.9533C-0.00712953 43.4045 1.16345 44.587 2.61469 44.5944C2.61917 44.5944 2.62342 44.5944 2.62812 44.5944C4.07332 44.5944 5.24837 43.4265 5.25576 41.9797L5.35268 22.6735C5.35424 22.368 5.6179 22.1254 5.92946 22.1574C6.20006 22.1853 6.39545 22.4333 6.39545 22.7053L6.39679 66.849C6.39679 68.6411 7.89168 70.084 9.70261 69.9988C11.3987 69.9189 12.7036 68.4578 12.7036 66.7599V42.3622C12.7036 42.0305 12.9245 41.7248 13.2492 41.6579C13.6835 41.5683 14.0651 41.8973 14.0651 42.3157V66.7599C14.0651 68.4578 15.3699 69.9189 17.066 69.9988C18.877 70.084 20.3721 68.6411 20.3721 66.849C20.3087 24.5748 20.3143 30.103 20.3148 22.708C20.3148 22.421 20.5207 22.1587 20.8063 22.1292C21.1349 22.0951 21.4128 22.3512 21.4146 22.6733C21.4238 24.4985 21.4522 30.1676 21.4625 32.2252C21.4663 32.9654 21.7515 33.6883 22.2947 34.191C23.1868 35.0169 24.4863 35.1185 25.477 34.5032L29.1095 32.2478C29.1986 32.3423 29.2982 32.4291 29.4104 32.5048C30.2286 33.0567 31.3392 32.8407 31.8912 32.0227L33.6347 29.4382L34.7899 28.7211C35.7494 28.1255 36.1885 27.0125 35.9768 25.9668C38.3759 22.4103 39.4827 20.7699 41.8722 17.2275C42.3798 16.475 42.2945 15.439 41.6134 14.8387Z" fill="black"/>
<path d="M7.93737 8.72292H18.6758C19.6626 8.72292 20.4628 7.92276 20.4628 6.93594C20.4628 6.3135 20.144 5.76604 19.6615 5.44598C19.5411 4.45155 19.1908 3.52829 18.6641 2.73127C17.74 1.33262 16.2755 0.323643 14.5678 0V3.05044C14.5678 3.74696 14.0031 4.31188 13.3063 4.31188C12.6098 4.31188 12.0449 3.74719 12.0449 3.05044V0.0308871C10.4036 0.384746 8.99961 1.37492 8.10344 2.73127C7.59403 3.50233 7.24934 4.39134 7.11841 5.34884C6.54387 5.64607 6.15039 6.24456 6.15039 6.93594C6.15039 7.92276 6.95032 8.72292 7.93737 8.72292Z" fill="black"/>
<path d="M44.5034 19.32C44.9834 19.32 45.45 19.28 45.9034 19.2C46.3567 19.12 46.7634 18.9867 47.1234 18.8C47.4967 18.6133 47.81 18.3733 48.0634 18.08C48.33 17.7867 48.5034 17.4267 48.5834 17H50.4434V31H47.9434V21.12H44.5034V19.32Z" fill="#1D1D21"/>
</svg>
