<?xml version="1.0" encoding="UTF-8"?>
<svg id="Capa_1" data-name="Capa 1" xmlns="http://www.w3.org/2000/svg" viewBox="0 0 60 60.41">
  <defs>
    <style>
      .cls-1 {
        fill: #000;
        stroke-width: 0px;
      }
    </style>
  </defs>
  <path class="cls-1" d="M30,0C13.46,0,0,11.3,0,25.2c0,7.49,4.02,14.61,10.84,19.37-.22,3.71-3.22,8.49-4.41,10.06-.83,1.09-.97,2.55-.36,3.78.61,1.23,1.86,2,3.23,2,8.23,0,17.23-6.44,21.6-10.02,16.12-.4,29.1-11.55,29.1-25.19S46.54,0,30,0ZM30.02,43.2h0c-.99-.07-2,.2-2.76.85-3.08,2.64-6.96,5.38-10.72,7.17,1.13-2.86,1.88-6.17,1.32-9.31-.18-1.02-.79-1.91-1.68-2.44-5.7-3.46-8.98-8.66-8.98-14.26,0-9.92,10.23-18,22.8-18s22.8,8.07,22.8,18-10.22,18-22.78,18Z"/>
</svg>