<svg width="30" height="35" viewBox="0 0 30 35" fill="none" xmlns="http://www.w3.org/2000/svg">
<path d="M28.3959 27.631C27.1018 25.3307 24.9824 22.7253 21.532 21.2441C19.5586 22.6247 17.1612 23.4376 14.5768 23.4376C11.9909 23.4376 9.5935 22.6248 7.62004 21.2441C4.16967 22.7253 2.05018 25.3308 0.756894 27.631C-0.959542 30.682 0.386181 34.9991 3.35469 34.9991C6.32326 34.9991 14.5768 34.9991 14.5768 34.9991C14.5768 34.9991 22.8296 34.9991 25.7982 34.9991C28.7667 34.9991 30.1124 30.682 28.3959 27.631Z" fill="white"/>
<path d="M14.5763 20.5516C19.6447 20.5516 23.7523 16.4427 23.7523 11.3749V9.17663C23.7523 4.10894 19.6447 0 14.5763 0C9.50712 0 5.39893 4.10895 5.39893 9.1767V11.375C5.39893 16.4427 9.50719 20.5516 14.5763 20.5516Z" fill="white"/>
</svg>
