<svg width="42" height="44" viewBox="0 0 42 44" fill="none" xmlns="http://www.w3.org/2000/svg">
<path d="M20.5889 2V34M20.5889 34V42M20.5889 34L26.5889 40M20.5889 34L14.5889 40M26.5889 4L20.5889 10L14.5889 4" stroke="#1D1D21" stroke-width="3.75" stroke-linecap="round"/>
<path d="M3.26843 12.0008L10.1966 16.0008M10.1966 16.0008L30.9813 28.0008M10.1966 16.0008L8.00049 7.80469M10.1966 16.0008L2.00049 18.197M30.9813 28.0008L37.9095 32.0008M30.9813 28.0008L39.1775 25.8046M30.9813 28.0008L33.1775 36.197" stroke="#1D1D21" stroke-width="3.75" stroke-linecap="round"/>
<path d="M37.9089 12.0008L30.9807 16.0008M30.9807 16.0008L10.1961 28.0008M30.9807 16.0008L33.1769 7.80469M30.9807 16.0008L39.1769 18.197M10.1961 28.0008L3.26794 32.0008M10.1961 28.0008L2 25.8046M10.1961 28.0008L8 36.197" stroke="#1D1D21" stroke-width="3.75" stroke-linecap="round"/>
</svg>
