<svg width="145" height="70" viewBox="0 0 145 70" fill="none" xmlns="http://www.w3.org/2000/svg">
<path d="M63.4407 4.42773H35.9178C34.931 4.42773 34.1309 5.22789 34.1309 6.21471V18.5404L37.3539 13.7628C37.4613 13.6037 37.579 13.4537 37.7048 13.3122V8.00168H61.6537V41.565H37.7048V30.1186C37.4049 30.432 37.0611 30.7133 36.6757 30.9528L35.78 31.5088L34.482 33.4329C34.3744 33.5923 34.2566 33.7423 34.1309 33.8839V43.352C34.1309 44.3388 34.931 45.1389 35.9178 45.1389H63.4407C64.4275 45.1389 65.2277 44.3388 65.2277 43.352V6.21471C65.2277 5.22766 64.4275 4.42773 63.4407 4.42773Z" fill="black"/>
<path d="M103.31 4.66602H75.787C74.8002 4.66602 74 5.46617 74 6.45299V18.7787L77.223 14.0011C77.3304 13.8419 77.4482 13.692 77.5739 13.5505V8.23996H101.523V41.8033H77.5739V30.3569C77.274 30.6703 76.9302 30.9516 76.5448 31.1911L75.6491 31.7471L74.3512 33.6712C74.2435 33.8306 74.1258 33.9805 74 34.1222V43.5902C74 44.5771 74.8002 45.3772 75.787 45.3772H103.31C104.297 45.3772 105.097 44.5771 105.097 43.5902V6.45299C105.097 5.46595 104.297 4.66602 103.31 4.66602Z" fill="black"/>
<path d="M142.976 4.66602H115.453C114.466 4.66602 113.666 5.46617 113.666 6.45299V18.7787L116.889 14.0011C116.996 13.8419 117.114 13.692 117.24 13.5505V8.23996H141.189V41.8033H117.24V30.3569C116.94 30.6703 116.596 30.9516 116.211 31.1911L115.315 31.7471L114.017 33.6712C113.91 33.8306 113.792 33.9805 113.666 34.1222V43.5902C113.666 44.5771 114.466 45.3772 115.453 45.3772H142.976C143.963 45.3772 144.763 44.5771 144.763 43.5902V6.45299C144.763 5.46595 143.963 4.66602 142.976 4.66602Z" fill="black"/>
<path d="M13.882 14.7211C16.2343 14.7211 18.2384 13.2295 19.0001 11.1406H8.76367C9.52555 13.2295 11.5294 14.7211 13.882 14.7211Z" fill="black"/>
<path d="M42.1134 14.8387C41.2893 14.1124 40.0404 14.2941 39.4451 15.1758C38.0968 17.1745 34.9561 21.8297 33.5703 23.8844C33.2074 23.9305 32.8484 24.0509 32.5174 24.2563L27.1952 27.5608C27.1865 25.8276 27.1795 24.4551 27.1706 22.6475C27.1533 19.2029 24.3207 16.3842 20.8761 16.3842H20.4835C19.8801 17.6608 16.1996 25.4453 15.6374 26.6346V19.3346L16.6996 17.4446C16.9662 16.9701 16.6233 16.3842 16.0792 16.3842H11.6991C11.1583 16.3842 10.815 16.9636 11.0748 17.4379L12.0634 19.2426V26.6346C8.77039 19.6685 10.5887 23.3635 7.28937 16.3842H6.81577C3.40364 16.3842 0.613957 19.2352 0.596947 22.6471L0.500033 41.9533C0.49287 43.4045 1.66345 44.587 3.11469 44.5944C3.11917 44.5944 3.12342 44.5944 3.12812 44.5944C4.57332 44.5944 5.74837 43.4265 5.75576 41.9797L5.85268 22.6735C5.85424 22.368 6.1179 22.1254 6.42946 22.1574C6.70006 22.1853 6.89545 22.4333 6.89545 22.7053L6.89679 66.849C6.89679 68.6411 8.39168 70.084 10.2026 69.9988C11.8987 69.9189 13.2036 68.4578 13.2036 66.7599V42.3622C13.2036 42.0305 13.4245 41.7248 13.7492 41.6579C14.1835 41.5683 14.5651 41.8973 14.5651 42.3157V66.7599C14.5651 68.4578 15.8699 69.9189 17.566 69.9988C19.377 70.084 20.8721 68.6411 20.8721 66.849C20.8087 24.5748 20.8143 30.103 20.8148 22.708C20.8148 22.421 21.0207 22.1587 21.3063 22.1292C21.6349 22.0951 21.9128 22.3512 21.9146 22.6733C21.9238 24.4985 21.9522 30.1676 21.9625 32.2252C21.9663 32.9654 22.2515 33.6883 22.7947 34.191C23.6868 35.0169 24.9863 35.1185 25.977 34.5032L29.6095 32.2478C29.6986 32.3423 29.7982 32.4291 29.9104 32.5048C30.7286 33.0567 31.8392 32.8407 32.3912 32.0227L34.1347 29.4382L35.2899 28.7211C36.2494 28.1255 36.6885 27.0125 36.4768 25.9668C38.8759 22.4103 39.9827 20.7699 42.3722 17.2275C42.8798 16.475 42.7945 15.439 42.1134 14.8387Z" fill="black"/>
<path d="M8.43737 8.72292H19.1758C20.1626 8.72292 20.9628 7.92276 20.9628 6.93594C20.9628 6.3135 20.644 5.76604 20.1615 5.44598C20.0411 4.45155 19.6908 3.52829 19.1641 2.73127C18.24 1.33262 16.7755 0.323643 15.0678 0V3.05044C15.0678 3.74696 14.5031 4.31188 13.8063 4.31188C13.1098 4.31188 12.5449 3.74719 12.5449 3.05044V0.0308871C10.9036 0.384746 9.49961 1.37492 8.60344 2.73127C8.09403 3.50233 7.74934 4.39134 7.61841 5.34884C7.04387 5.64607 6.65039 6.24456 6.65039 6.93594C6.65039 7.92276 7.45032 8.72292 8.43737 8.72292Z" fill="black"/>
<path d="M93.7834 31H84.2234C84.2367 29.84 84.5167 28.8267 85.0634 27.96C85.61 27.0933 86.3567 26.34 87.3034 25.7C87.7567 25.3667 88.23 25.0467 88.7234 24.74C89.2167 24.42 89.67 24.08 90.0834 23.72C90.4967 23.36 90.8367 22.9733 91.1034 22.56C91.37 22.1333 91.51 21.6467 91.5234 21.1C91.5234 20.8467 91.49 20.58 91.4234 20.3C91.37 20.0067 91.2567 19.74 91.0834 19.5C90.91 19.2467 90.67 19.04 90.3634 18.88C90.0567 18.7067 89.6567 18.62 89.1634 18.62C88.71 18.62 88.33 18.7133 88.0234 18.9C87.73 19.0733 87.49 19.32 87.3034 19.64C87.13 19.9467 86.9967 20.3133 86.9034 20.74C86.8234 21.1667 86.7767 21.6267 86.7634 22.12H84.4834C84.4834 21.3467 84.5834 20.6333 84.7834 19.98C84.9967 19.3133 85.31 18.74 85.7234 18.26C86.1367 17.78 86.6367 17.4067 87.2234 17.14C87.8234 16.86 88.5167 16.72 89.3034 16.72C90.1567 16.72 90.87 16.86 91.4434 17.14C92.0167 17.42 92.4767 17.7733 92.8234 18.2C93.1834 18.6267 93.4367 19.0933 93.5834 19.6C93.73 20.0933 93.8034 20.5667 93.8034 21.02C93.8034 21.58 93.7167 22.0867 93.5434 22.54C93.37 22.9933 93.1367 23.4133 92.8434 23.8C92.55 24.1733 92.2167 24.52 91.8434 24.84C91.47 25.16 91.0834 25.46 90.6834 25.74C90.2834 26.02 89.8834 26.2867 89.4834 26.54C89.0834 26.7933 88.71 27.0467 88.3634 27.3C88.03 27.5533 87.7367 27.82 87.4834 28.1C87.23 28.3667 87.0567 28.6533 86.9634 28.96H93.7834V31Z" fill="#1D1D21"/>
<path d="M128.003 22.8C128.377 22.8133 128.75 22.7867 129.123 22.72C129.497 22.6533 129.83 22.54 130.123 22.38C130.417 22.2067 130.65 21.9733 130.823 21.68C131.01 21.3867 131.103 21.0267 131.103 20.6C131.103 20 130.897 19.52 130.483 19.16C130.083 18.8 129.563 18.62 128.923 18.62C128.523 18.62 128.177 18.7 127.883 18.86C127.59 19.02 127.343 19.24 127.143 19.52C126.957 19.7867 126.817 20.0933 126.723 20.44C126.63 20.7733 126.59 21.12 126.603 21.48H124.323C124.35 20.8 124.477 20.1733 124.703 19.6C124.93 19.0133 125.237 18.5067 125.623 18.08C126.023 17.6533 126.503 17.32 127.063 17.08C127.623 16.84 128.257 16.72 128.963 16.72C129.51 16.72 130.043 16.8 130.563 16.96C131.097 17.12 131.57 17.3533 131.983 17.66C132.41 17.9667 132.75 18.36 133.003 18.84C133.257 19.3067 133.383 19.8467 133.383 20.46C133.383 21.1667 133.223 21.7867 132.903 22.32C132.583 22.84 132.083 23.22 131.403 23.46V23.5C132.203 23.66 132.823 24.06 133.263 24.7C133.717 25.3267 133.943 26.0933 133.943 27C133.943 27.6667 133.81 28.2667 133.543 28.8C133.277 29.32 132.917 29.7667 132.463 30.14C132.01 30.5 131.483 30.78 130.883 30.98C130.283 31.18 129.65 31.28 128.983 31.28C128.17 31.28 127.457 31.1667 126.843 30.94C126.243 30.7 125.737 30.3667 125.323 29.94C124.923 29.5133 124.617 29 124.403 28.4C124.19 27.8 124.077 27.1333 124.063 26.4H126.343C126.317 27.2533 126.523 27.9667 126.963 28.54C127.417 29.1 128.09 29.38 128.983 29.38C129.743 29.38 130.377 29.1667 130.883 28.74C131.403 28.3 131.663 27.68 131.663 26.88C131.663 26.3333 131.557 25.9 131.343 25.58C131.13 25.26 130.85 25.02 130.503 24.86C130.157 24.6867 129.763 24.58 129.323 24.54C128.897 24.5 128.457 24.4867 128.003 24.5V22.8Z" fill="#1D1D21"/>
<path d="M45.5034 19.32C45.9834 19.32 46.45 19.28 46.9034 19.2C47.3567 19.12 47.7634 18.9867 48.1234 18.8C48.4967 18.6133 48.81 18.3733 49.0634 18.08C49.33 17.7867 49.5034 17.4267 49.5834 17H51.4434V31H48.9434V21.12H45.5034V19.32Z" fill="#1D1D21"/>
</svg>
