<svg width="25" height="15" viewBox="0 0 25 15" fill="none" xmlns="http://www.w3.org/2000/svg">
<path d="M9.375 7.5C9.375 6.33506 10.5936 5.39062 12.0968 5.39062C13.5999 5.39062 14.8185 6.33506 14.8185 7.5C14.8185 8.66494 13.5999 9.60938 12.0968 9.60938C10.5936 9.60938 9.375 8.66494 9.375 7.5Z" fill="#1D1D21"/>
<path fill-rule="evenodd" clip-rule="evenodd" d="M0 7.5C0 9.03694 0.514064 9.55453 1.54221 10.5897C3.59511 12.6566 7.03804 15 12.0968 15C17.1555 15 20.5984 12.6566 22.6513 10.5897C23.6794 9.55453 24.1936 9.03694 24.1936 7.5C24.1936 5.96306 23.6794 5.4455 22.6513 4.41031C20.5984 2.34334 17.1555 0 12.0968 0C7.03804 0 3.59511 2.34334 1.54221 4.41031C0.514064 5.4455 0 5.96306 0 7.5ZM12.0968 3.98438C9.59145 3.98438 7.56048 5.55837 7.56048 7.5C7.56048 9.44166 9.59145 11.0156 12.0968 11.0156C14.6021 11.0156 16.6331 9.44166 16.6331 7.5C16.6331 5.55837 14.6021 3.98438 12.0968 3.98438Z" fill="#1D1D21"/>
</svg>
